<svg width="205" height="28" viewBox="0 0 205 28" fill="none" xmlns="http://www.w3.org/2000/svg">
<path d="M9.975 3.585C7.96833 3.585 6.965 4.67 6.965 6.84V8.45H12.355V11.215H7.035V27H3.675V11.215H0.525V8.45H3.675V6.805C3.675 4.96167 4.21167 3.50333 5.285 2.43C6.35833 1.35667 7.86333 0.819999 9.8 0.819999C10.5467 0.819999 11.2467 0.913333 11.9 1.1C12.5533 1.28667 13.1133 1.555 13.58 1.905L12.565 4.46C11.795 3.87667 10.9317 3.585 9.975 3.585ZM21.2371 8.275C23.8037 8.275 25.7637 8.905 27.1171 10.165C28.4937 11.425 29.1821 13.3033 29.1821 15.8V27H25.9971V24.55C25.4371 25.4133 24.6321 26.0783 23.5821 26.545C22.5554 26.9883 21.3304 27.21 19.9071 27.21C17.8304 27.21 16.1621 26.7083 14.9021 25.705C13.6654 24.7017 13.0471 23.3833 13.0471 21.75C13.0471 20.1167 13.6421 18.81 14.8321 17.83C16.0221 16.8267 17.9121 16.325 20.5021 16.325H25.8221V15.66C25.8221 14.2133 25.4021 13.105 24.5621 12.335C23.7221 11.565 22.4854 11.18 20.8521 11.18C19.7554 11.18 18.6821 11.3667 17.6321 11.74C16.5821 12.09 15.6954 12.5683 14.9721 13.175L13.5721 10.655C14.5287 9.885 15.6721 9.30167 17.0021 8.905C18.3321 8.485 19.7437 8.275 21.2371 8.275ZM20.4671 24.62C21.7504 24.62 22.8587 24.34 23.7921 23.78C24.7254 23.1967 25.4021 22.38 25.8221 21.33V18.74H20.6421C17.7954 18.74 16.3721 19.6967 16.3721 21.61C16.3721 22.5433 16.7337 23.2783 17.4571 23.815C18.1804 24.3517 19.1837 24.62 20.4671 24.62ZM52.3026 1.03V27H49.0826V24.06C48.3359 25.0867 47.3909 25.8683 46.2476 26.405C45.1042 26.9417 43.8442 27.21 42.4676 27.21C40.6709 27.21 39.0609 26.8133 37.6376 26.02C36.2142 25.2267 35.0942 24.1183 34.2776 22.695C33.4842 21.2483 33.0876 19.5917 33.0876 17.725C33.0876 15.8583 33.4842 14.2133 34.2776 12.79C35.0942 11.3667 36.2142 10.2583 37.6376 9.465C39.0609 8.67167 40.6709 8.275 42.4676 8.275C43.7976 8.275 45.0226 8.53167 46.1426 9.045C47.2626 9.535 48.1959 10.27 48.9426 11.25V1.03H52.3026ZM42.7476 24.27C43.9142 24.27 44.9759 24.0017 45.9326 23.465C46.8892 22.905 47.6359 22.135 48.1726 21.155C48.7092 20.1517 48.9776 19.0083 48.9776 17.725C48.9776 16.4417 48.7092 15.31 48.1726 14.33C47.6359 13.3267 46.8892 12.5567 45.9326 12.02C44.9759 11.4833 43.9142 11.215 42.7476 11.215C41.5576 11.215 40.4842 11.4833 39.5276 12.02C38.5942 12.5567 37.8476 13.3267 37.2876 14.33C36.7509 15.31 36.4826 16.4417 36.4826 17.725C36.4826 19.0083 36.7509 20.1517 37.2876 21.155C37.8476 22.135 38.5942 22.905 39.5276 23.465C40.4842 24.0017 41.5576 24.27 42.7476 24.27ZM57.96 8.45H61.32V27H57.96V8.45ZM59.64 4.88C58.9867 4.88 58.4383 4.67 57.995 4.25C57.575 3.83 57.365 3.31667 57.365 2.71C57.365 2.10333 57.575 1.59 57.995 1.17C58.4383 0.726666 58.9867 0.504999 59.64 0.504999C60.2933 0.504999 60.83 0.714999 61.25 1.135C61.6933 1.53166 61.915 2.03333 61.915 2.64C61.915 3.27 61.6933 3.80667 61.25 4.25C60.83 4.67 60.2933 4.88 59.64 4.88ZM67.0354 1.03H70.3954V27H67.0354V1.03ZM76.1108 1.03H79.4708V27H76.1108V1.03ZM91.9412 8.275C94.5078 8.275 96.4678 8.905 97.8212 10.165C99.1978 11.425 99.8862 13.3033 99.8862 15.8V27H96.7012V24.55C96.1412 25.4133 95.3362 26.0783 94.2862 26.545C93.2595 26.9883 92.0345 27.21 90.6112 27.21C88.5345 27.21 86.8662 26.7083 85.6062 25.705C84.3695 24.7017 83.7512 23.3833 83.7512 21.75C83.7512 20.1167 84.3462 18.81 85.5362 17.83C86.7262 16.8267 88.6162 16.325 91.2062 16.325H96.5262V15.66C96.5262 14.2133 96.1062 13.105 95.2662 12.335C94.4262 11.565 93.1895 11.18 91.5562 11.18C90.4595 11.18 89.3862 11.3667 88.3362 11.74C87.2862 12.09 86.3995 12.5683 85.6762 13.175L84.2762 10.655C85.2328 9.885 86.3762 9.30167 87.7062 8.905C89.0362 8.485 90.4478 8.275 91.9412 8.275ZM91.1712 24.62C92.4545 24.62 93.5628 24.34 94.4962 23.78C95.4295 23.1967 96.1062 22.38 96.5262 21.33V18.74H91.3462C88.4995 18.74 87.0762 19.6967 87.0762 21.61C87.0762 22.5433 87.4378 23.2783 88.1612 23.815C88.8845 24.3517 89.8878 24.62 91.1712 24.62Z" fill="black"/>
<path d="M113.594 2.43C116.184 2.43 118.447 2.94333 120.384 3.97C122.321 4.99667 123.814 6.44333 124.864 8.31C125.937 10.1533 126.474 12.2883 126.474 14.715C126.474 17.1183 125.937 19.2533 124.864 21.12C123.814 22.9867 122.309 24.4333 120.349 25.46C118.412 26.4867 116.161 27 113.594 27H104.389V2.43H113.594ZM113.209 21.82C115.472 21.82 117.234 21.2017 118.494 19.965C119.754 18.7283 120.384 16.9783 120.384 14.715C120.384 12.4517 119.754 10.69 118.494 9.43C117.234 8.17 115.472 7.54 113.209 7.54H110.374V21.82H113.209ZM147.529 16.92C147.529 17.48 147.494 18.0633 147.424 18.67H133.879C133.972 19.8833 134.357 20.8167 135.034 21.47C135.734 22.1 136.585 22.415 137.589 22.415C139.082 22.415 140.12 21.785 140.704 20.525H147.074C146.747 21.8083 146.152 22.9633 145.289 23.99C144.449 25.0167 143.387 25.8217 142.104 26.405C140.82 26.9883 139.385 27.28 137.799 27.28C135.885 27.28 134.182 26.8717 132.689 26.055C131.195 25.2383 130.029 24.0717 129.189 22.555C128.349 21.0383 127.929 19.265 127.929 17.235C127.929 15.205 128.337 13.4317 129.154 11.915C129.994 10.3983 131.16 9.23167 132.654 8.415C134.147 7.59833 135.862 7.19 137.799 7.19C139.689 7.19 141.369 7.58667 142.839 8.38C144.309 9.17333 145.452 10.305 146.269 11.775C147.109 13.245 147.529 14.96 147.529 16.92ZM141.404 15.345C141.404 14.3183 141.054 13.5017 140.354 12.895C139.654 12.2883 138.779 11.985 137.729 11.985C136.725 11.985 135.874 12.2767 135.174 12.86C134.497 13.4433 134.077 14.2717 133.914 15.345H141.404ZM148.796 17.235C148.796 15.205 149.205 13.4317 150.021 11.915C150.861 10.3983 152.016 9.23167 153.486 8.415C154.98 7.59833 156.683 7.19 158.596 7.19C161.046 7.19 163.088 7.83167 164.721 9.115C166.378 10.3983 167.463 12.2067 167.976 14.54H161.606C161.07 13.0467 160.031 12.3 158.491 12.3C157.395 12.3 156.52 12.7317 155.866 13.595C155.213 14.435 154.886 15.6483 154.886 17.235C154.886 18.8217 155.213 20.0467 155.866 20.91C156.52 21.75 157.395 22.17 158.491 22.17C160.031 22.17 161.07 21.4233 161.606 19.93H167.976C167.463 22.2167 166.378 24.0133 164.721 25.32C163.065 26.6267 161.023 27.28 158.596 27.28C156.683 27.28 154.98 26.8717 153.486 26.055C152.016 25.2383 150.861 24.0717 150.021 22.555C149.205 21.0383 148.796 19.265 148.796 17.235ZM179.368 27.28C177.454 27.28 175.728 26.8717 174.188 26.055C172.671 25.2383 171.469 24.0717 170.583 22.555C169.719 21.0383 169.288 19.265 169.288 17.235C169.288 15.2283 169.731 13.4667 170.618 11.95C171.504 10.41 172.718 9.23167 174.258 8.415C175.798 7.59833 177.524 7.19 179.438 7.19C181.351 7.19 183.078 7.59833 184.618 8.415C186.158 9.23167 187.371 10.41 188.258 11.95C189.144 13.4667 189.588 15.2283 189.588 17.235C189.588 19.2417 189.133 21.015 188.223 22.555C187.336 24.0717 186.111 25.2383 184.548 26.055C183.008 26.8717 181.281 27.28 179.368 27.28ZM179.368 22.1C180.511 22.1 181.479 21.68 182.273 20.84C183.089 20 183.498 18.7983 183.498 17.235C183.498 15.6717 183.101 14.47 182.308 13.63C181.538 12.79 180.581 12.37 179.438 12.37C178.271 12.37 177.303 12.79 176.533 13.63C175.763 14.4467 175.378 15.6483 175.378 17.235C175.378 18.7983 175.751 20 176.498 20.84C177.268 21.68 178.224 22.1 179.368 22.1ZM198.048 10.725C198.748 9.65167 199.623 8.81167 200.673 8.205C201.723 7.575 202.889 7.26 204.173 7.26V13.595H202.528C201.034 13.595 199.914 13.9217 199.168 14.575C198.421 15.205 198.048 16.325 198.048 17.935V27H192.063V7.47H198.048V10.725Z" fill="#FFC71C"/>
</svg>
