<svg width="64" height="64" viewBox="0 0 64 64" fill="none" xmlns="http://www.w3.org/2000/svg">
<path opacity="0.3" d="M10.6666 45.3332H53.3333V50.6665H10.6666V45.3332ZM45.3333 28.8798L41.0133 31.9998L34.6666 23.3598L32 19.7332L29.3333 23.3598L22.9866 31.9998L18.6666 28.8798L24.2133 21.3332H10.6666V37.3332H53.3333V21.3332H39.7866L45.3333 28.8798Z" fill="#F9EB40"/>
<path d="M53.3334 15.9999H47.52C47.8134 15.1733 48 14.2666 48 13.3333C48 8.90659 44.4267 5.33325 40 5.33325C37.2 5.33325 34.7734 6.77325 33.3334 8.93325L32 10.7199L30.6667 8.90659C29.2267 6.77325 26.8 5.33325 24 5.33325C19.5734 5.33325 16 8.90659 16 13.3333C16 14.2666 16.1867 15.1733 16.48 15.9999H10.6667C7.70671 15.9999 5.36004 18.3733 5.36004 21.3333L5.33337 50.6666C5.33337 53.6266 7.70671 55.9999 10.6667 55.9999H53.3334C56.2934 55.9999 58.6667 53.6266 58.6667 50.6666V21.3333C58.6667 18.3733 56.2934 15.9999 53.3334 15.9999ZM40 10.6666C41.4667 10.6666 42.6667 11.8666 42.6667 13.3333C42.6667 14.7999 41.4667 15.9999 40 15.9999C38.5334 15.9999 37.3334 14.7999 37.3334 13.3333C37.3334 11.8666 38.5334 10.6666 40 10.6666ZM24 10.6666C25.4667 10.6666 26.6667 11.8666 26.6667 13.3333C26.6667 14.7999 25.4667 15.9999 24 15.9999C22.5334 15.9999 21.3334 14.7999 21.3334 13.3333C21.3334 11.8666 22.5334 10.6666 24 10.6666ZM53.3334 50.6666H10.6667V45.3333H53.3334V50.6666ZM53.3334 37.3333H10.6667V21.3333H24.2134L18.6667 28.8799L22.9867 31.9999L29.3334 23.3599L32 19.7333L34.6667 23.3599L41.0134 31.9999L45.3334 28.8799L39.7867 21.3333H53.3334V37.3333Z" fill="#E4D736"/>
</svg>
