<svg width="64" height="64" viewBox="0 0 64 64" fill="none" xmlns="http://www.w3.org/2000/svg">
<path opacity="0.3" d="M32.0001 10.6667C20.2401 10.6667 10.6667 20.2401 10.6667 32.0001C10.6667 43.7601 20.2401 53.3334 32.0001 53.3334C43.7601 53.3334 53.3334 43.7601 53.3334 32.0001C53.3334 20.2401 43.7601 10.6667 32.0001 10.6667ZM26.6667 45.3334L16.0001 34.6667L19.7601 30.9067L26.6667 37.7867L44.2401 20.2134L48.0001 24.0001L26.6667 45.3334Z" fill="#05A667"/>
<path d="M31.9999 5.33325C17.2799 5.33325 5.33325 17.2799 5.33325 31.9999C5.33325 46.7199 17.2799 58.6666 31.9999 58.6666C46.7199 58.6666 58.6666 46.7199 58.6666 31.9999C58.6666 17.2799 46.7199 5.33325 31.9999 5.33325ZM31.9999 53.3333C20.2399 53.3333 10.6666 43.7599 10.6666 31.9999C10.6666 20.2399 20.2399 10.6666 31.9999 10.6666C43.7599 10.6666 53.3333 20.2399 53.3333 31.9999C53.3333 43.7599 43.7599 53.3333 31.9999 53.3333ZM44.2399 20.2133L26.6666 37.7866L19.7599 30.9066L15.9999 34.6666L26.6666 45.3333L47.9999 23.9999L44.2399 20.2133Z" fill="#05A667"/>
</svg>
