<svg width="64" height="64" viewBox="0 0 64 64" fill="none" xmlns="http://www.w3.org/2000/svg">
<path opacity="0.3" d="M31.9999 34.6667C33.6533 34.6667 34.9866 33.36 35.0399 31.7333L34.7466 28.8267C33.8933 29.1467 32.9599 29.3333 31.9999 29.3333C31.0399 29.3333 30.1333 29.1467 29.2799 28.8267L28.9599 31.7333C29.0133 33.36 30.3466 34.6667 31.9999 34.6667ZM21.7866 18.9333L24.1333 20.0533C24.4533 18.1067 25.4933 16.4 26.9599 15.1733L24.7999 13.68C24.3199 13.3333 23.7066 13.1467 23.0933 13.1467C21.4133 13.1467 20.0533 14.5067 20.0533 16.1867C20.0266 17.36 20.7199 18.4 21.7866 18.9333ZM42.2133 23.7333L39.8666 22.6133C39.5466 24.56 38.5066 26.2667 37.0399 27.4933L39.1999 29.0133C39.6799 29.36 40.2933 29.5467 40.9066 29.5467C42.5866 29.5467 43.9466 28.1867 43.9466 26.5067C43.9733 25.3067 43.2799 24.2667 42.2133 23.7333ZM39.8666 20.0533L42.2133 18.9333C43.2799 18.4267 43.9733 17.36 43.9733 16.1867C43.9733 14.5067 42.6133 13.1467 40.9333 13.1467C40.2933 13.1467 39.7066 13.3333 39.1999 13.68L37.0399 15.1467C38.5066 16.3733 39.5466 18.08 39.8666 20.0533ZM31.9999 13.3333C32.9599 13.3333 33.8933 13.52 34.7466 13.84L35.0399 10.9333C34.9866 9.30667 33.6533 8 31.9999 8C30.3466 8 29.0133 9.30667 28.9599 10.9333L29.2799 13.84C30.1333 13.52 31.0399 13.3333 31.9999 13.3333ZM23.0933 29.52C23.7333 29.52 24.3199 29.3333 24.8266 28.9867L26.9866 27.52C25.4933 26.2933 24.4533 24.5867 24.1333 22.6133L21.7866 23.7333C20.7199 24.2667 20.0266 25.3067 20.0266 26.48C20.0266 28.16 21.4133 29.52 23.0933 29.52ZM49.4933 41.1733C44.4266 43.0667 40.3733 47.0933 38.5066 52.16C43.5733 50.2667 47.5999 46.24 49.4933 41.1733ZM14.5066 41.1733C16.3999 46.24 20.4266 50.2933 25.4933 52.16C23.5999 47.0933 19.5733 43.0667 14.5066 41.1733Z" fill="#B3D042"/>
<path d="M23.0933 34.8534C23.4933 34.8534 23.8667 34.8267 24.24 34.7734C25.4933 37.8401 28.5067 40.0001 32 40.0001C35.4933 40.0001 38.5067 37.8401 39.76 34.7734C40.1333 34.8267 40.5333 34.8534 40.9067 34.8534C45.52 34.8534 49.28 31.0934 49.28 26.4801C49.28 24.5868 48.6133 22.7734 47.4933 21.3334C48.64 19.8934 49.28 18.0801 49.28 16.1867C49.28 11.5734 45.52 7.81342 40.9067 7.81342C40.5067 7.81342 40.1333 7.84008 39.76 7.89341C38.5067 4.82675 35.4933 2.66675 32 2.66675C28.5067 2.66675 25.4933 4.82675 24.24 7.89341C23.8667 7.84008 23.4667 7.81342 23.0933 7.81342C18.48 7.81342 14.72 11.5734 14.72 16.1867C14.72 18.0801 15.3867 19.8934 16.5067 21.3334C15.36 22.7734 14.6933 24.5868 14.6933 26.4801C14.6933 31.0934 18.4533 34.8534 23.0933 34.8534ZM40.9067 29.5201C40.2667 29.5201 39.68 29.3334 39.2 28.9867L37.04 27.4667C38.5067 26.2667 39.5467 24.5601 39.8667 22.5868L42.2133 23.7067C43.28 24.2134 43.9733 25.2801 43.9733 26.4534C43.9733 28.1601 42.5867 29.5201 40.9067 29.5201ZM39.1733 13.6801C39.7067 13.3334 40.2933 13.1467 40.9067 13.1467C42.5867 13.1467 43.9467 14.5067 43.9467 16.1867C43.9467 17.3601 43.28 18.4001 42.1867 18.9334L39.84 20.0534C39.52 18.0801 38.48 16.3734 36.9867 15.1734L39.1733 13.6801ZM32 8.00008C33.6533 8.00008 34.9867 9.30675 35.04 10.9334L34.7467 13.8401C33.8933 13.5201 32.96 13.3334 32 13.3334C31.04 13.3334 30.1333 13.5201 29.28 13.8401L28.96 10.9334C29.0133 9.30675 30.3467 8.00008 32 8.00008ZM34.6667 21.3334C34.6667 22.8001 33.4667 24.0001 32 24.0001C30.5333 24.0001 29.3333 22.8001 29.3333 21.3334C29.3333 19.8667 30.5333 18.6667 32 18.6667C33.4667 18.6667 34.6667 19.8667 34.6667 21.3334ZM29.28 28.8267C30.1333 29.1467 31.04 29.3334 32 29.3334C32.96 29.3334 33.8933 29.1467 34.7467 28.8267L35.04 31.7334C34.9867 33.3601 33.6533 34.6667 32 34.6667C30.3467 34.6667 29.0133 33.3601 28.96 31.7334L29.28 28.8267ZM23.0933 13.1467C23.7333 13.1467 24.32 13.3334 24.8 13.6801L26.96 15.1734C25.4933 16.3734 24.4533 18.0801 24.1333 20.0534L21.7867 18.9334C20.72 18.4001 20.0267 17.3601 20.0267 16.1867C20.0267 14.5067 21.4133 13.1467 23.0933 13.1467ZM21.7867 23.7334L24.1333 22.6134C24.4533 24.5867 25.4933 26.2934 26.9867 27.4934L24.8267 28.9601C24.2933 29.3067 23.7067 29.4934 23.0933 29.4934C21.4133 29.4934 20.0533 28.1334 20.0533 26.4534C20.0267 25.3067 20.72 24.2667 21.7867 23.7334ZM32 58.6667C45.2533 58.6667 56 47.9201 56 34.6667C42.7467 34.6667 32 45.4134 32 58.6667ZM49.4933 41.1734C47.6 46.2401 43.5733 50.2934 38.5067 52.1601C40.4 47.0934 44.4267 43.0667 49.4933 41.1734ZM8 34.6667C8 47.9201 18.7467 58.6667 32 58.6667C32 45.4134 21.2533 34.6667 8 34.6667ZM14.5067 41.1734C19.5733 43.0667 23.6267 47.0934 25.4933 52.1601C20.4267 50.2667 16.4 46.2401 14.5067 41.1734Z" fill="#B3D042"/>
</svg>
