<svg width="64" height="64" viewBox="0 0 64 64" fill="none" xmlns="http://www.w3.org/2000/svg">
<path opacity="0.3" d="M44 13.3333C39.8933 13.3333 35.8933 15.9733 34.5066 19.6266H29.52C28.1066 15.9733 24.1066 13.3333 20 13.3333C14.6666 13.3333 10.6666 17.3333 10.6666 22.6666C10.6666 30.3733 19.04 37.9733 31.7333 49.4666L32 49.7333L32.2666 49.4666C44.96 37.9733 53.3333 30.3733 53.3333 22.6666C53.3333 17.3333 49.3333 13.3333 44 13.3333Z" fill="#E8AD4C"/>
<path d="M44 8C39.36 8 34.9067 10.16 32 13.5733C29.0934 10.16 24.64 8 20 8C11.7867 8 5.33337 14.4533 5.33337 22.6667C5.33337 32.7467 14.4 40.96 28.1334 53.44L32 56.9333L35.8667 53.4133C49.6 40.96 58.6667 32.7467 58.6667 22.6667C58.6667 14.4533 52.2134 8 44 8ZM32.2667 49.4667L32 49.7333L31.7334 49.4667C19.04 37.9733 10.6667 30.3733 10.6667 22.6667C10.6667 17.3333 14.6667 13.3333 20 13.3333C24.1067 13.3333 28.1067 15.9733 29.52 19.6267H34.5067C35.8934 15.9733 39.8934 13.3333 44 13.3333C49.3334 13.3333 53.3334 17.3333 53.3334 22.6667C53.3334 30.3733 44.96 37.9733 32.2667 49.4667Z" fill="#F3AF3F"/>
</svg>
