<svg width="172" height="69" viewBox="0 0 172 69" fill="none" xmlns="http://www.w3.org/2000/svg">
<path d="M104.68 24.4258C105.799 24.7383 106.75 25.0964 107.531 25.5C108.326 25.9036 108.99 26.3268 109.523 26.7695C110.07 27.1992 110.5 27.6419 110.812 28.0977C111.125 28.5534 111.366 28.9896 111.535 29.4062C111.704 29.8229 111.809 30.2135 111.848 30.5781C111.9 30.9297 111.926 31.2292 111.926 31.4766C111.926 32.388 111.75 33.2018 111.398 33.918C111.06 34.6341 110.598 35.2656 110.012 35.8125C109.426 36.3594 108.742 36.8216 107.961 37.1992C107.193 37.5768 106.385 37.8828 105.539 38.1172C104.693 38.3646 103.827 38.5404 102.941 38.6445C102.056 38.7617 101.216 38.8203 100.422 38.8203C99.1328 38.8203 97.7982 38.6901 96.418 38.4297C95.0508 38.1693 93.6641 37.7461 92.2578 37.1602C91.9453 37.0299 91.7891 36.8021 91.7891 36.4766C91.7891 36.2552 91.8672 36.0794 92.0234 35.9492C92.1797 35.806 92.349 35.7344 92.5312 35.7344C92.6224 35.7344 92.7201 35.7539 92.8242 35.793C94.0352 36.3008 95.2786 36.6849 96.5547 36.9453C97.8307 37.2057 99.1133 37.3359 100.402 37.3359C102.16 37.3359 103.671 37.1667 104.934 36.8281C106.197 36.4896 107.232 36.0469 108.039 35.5C108.859 34.9401 109.465 34.3151 109.855 33.625C110.246 32.9219 110.441 32.2122 110.441 31.4961C110.441 30.7018 110.22 29.9661 109.777 29.2891C109.348 28.612 108.729 28.0065 107.922 27.4727C107.128 26.9388 106.171 26.4831 105.051 26.1055C103.931 25.7279 102.688 25.4479 101.32 25.2656C100.422 25.4219 99.5495 25.5326 98.7031 25.5977C97.8568 25.6628 97.0755 25.6953 96.3594 25.6953H95.9102C95.819 25.6953 95.7344 25.6888 95.6562 25.6758C94.7188 27.9284 93.599 29.875 92.2969 31.5156C91.0078 33.1562 89.6276 34.5169 88.1562 35.5977C86.6979 36.6654 85.194 37.4596 83.6445 37.9805C82.1081 38.4883 80.6302 38.7422 79.2109 38.7422C77.7396 38.7422 76.3854 38.5339 75.1484 38.1172C73.9245 37.7135 72.8698 37.1341 71.9844 36.3789C71.099 35.6237 70.4089 34.7122 69.9141 33.6445C69.4193 32.5638 69.1719 31.3594 69.1719 30.0312C69.1719 28.651 69.4388 27.2253 69.9727 25.7539C70.5195 24.2695 71.3268 22.7656 72.3945 21.2422C73.4102 19.8099 74.5365 18.5273 75.7734 17.3945C77.0104 16.2487 78.306 15.2461 79.6602 14.3867C81.0273 13.5273 82.4336 12.7917 83.8789 12.1797C85.3242 11.5677 86.7565 11.0664 88.1758 10.6758C89.6081 10.2852 91.0013 10.0052 92.3555 9.83594C93.7227 9.65365 95.0052 9.5625 96.2031 9.5625C97.1797 9.5625 98.1107 9.59505 98.9961 9.66016C99.8815 9.72526 100.728 9.82292 101.535 9.95312C102.004 9.43229 102.382 9.0612 102.668 8.83984C102.954 8.60547 103.117 8.47526 103.156 8.44922C103.312 8.37109 103.449 8.33203 103.566 8.33203C103.749 8.33203 103.911 8.38411 104.055 8.48828C104.198 8.59245 104.27 8.74219 104.27 8.9375C104.27 9.19792 104.178 9.41927 103.996 9.60156C103.814 9.77083 103.566 10.0052 103.254 10.3047C105.637 10.8906 107.46 11.776 108.723 12.9609C109.986 14.1328 110.617 15.5846 110.617 17.3164C110.617 18.2669 110.461 19.1198 110.148 19.875C109.836 20.6302 109.406 21.2943 108.859 21.8672C108.326 22.4401 107.694 22.9414 106.965 23.3711C106.249 23.7878 105.487 24.1393 104.68 24.4258ZM101.34 23.7812C101.913 23.6771 102.499 23.5404 103.098 23.3711C103.71 23.2018 104.302 23 104.875 22.7656C105.461 22.5182 106.014 22.2318 106.535 21.9062C107.056 21.5677 107.505 21.1771 107.883 20.7344C108.273 20.2786 108.579 19.7708 108.801 19.2109C109.035 18.651 109.152 18.013 109.152 17.2969C109.152 15.8385 108.547 14.6341 107.336 13.6836C106.125 12.7331 104.387 12.0299 102.121 11.5742C101.47 12.3815 100.858 13.2734 100.285 14.25C99.7122 15.2266 99.1849 16.2422 98.7031 17.2969C98.2214 18.3385 97.7852 19.3997 97.3945 20.4805C97.0169 21.5482 96.7044 22.5833 96.457 23.5859C96.7174 23.5729 96.9583 23.5664 97.1797 23.5664C97.401 23.5664 97.5898 23.5664 97.7461 23.5664C98.2539 23.5664 98.8073 23.5859 99.4062 23.625C100.005 23.651 100.65 23.7031 101.34 23.7812ZM100.461 11.3008C99.7969 11.2096 99.1133 11.1445 98.4102 11.1055C97.707 11.0664 96.9714 11.0469 96.2031 11.0469C95.0573 11.0469 93.8398 11.1315 92.5508 11.3008C91.2617 11.4701 89.9401 11.737 88.5859 12.1016C87.2318 12.4661 85.8646 12.9414 84.4844 13.5273C83.1172 14.1003 81.7826 14.7969 80.4805 15.6172C79.1914 16.4245 77.9609 17.3685 76.7891 18.4492C75.6172 19.5299 74.5495 20.7474 73.5859 22.1016C72.6094 23.4818 71.8737 24.8424 71.3789 26.1836C70.8841 27.5247 70.6367 28.8008 70.6367 30.0117C70.6367 31.1445 70.8385 32.1602 71.2422 33.0586C71.6589 33.957 72.2448 34.7188 73 35.3438C73.7552 35.9557 74.6602 36.431 75.7148 36.7695C76.7695 37.0951 77.9349 37.2578 79.2109 37.2578C80.487 37.2578 81.8151 37.0299 83.1953 36.5742C84.5755 36.1055 85.9232 35.3958 87.2383 34.4453C88.5534 33.4818 89.8034 32.2708 90.9883 30.8125C92.1732 29.3411 93.2083 27.5964 94.0938 25.5781C93.8594 25.5781 93.6185 25.513 93.3711 25.3828C93.1237 25.2396 93 25.0182 93 24.7188C93 24.4062 93.1497 24.1849 93.4492 24.0547C93.7487 23.9115 94.2174 23.7943 94.8555 23.7031C95.207 22.6354 95.5651 21.5677 95.9297 20.5C96.2943 19.4323 96.6979 18.3776 97.1406 17.3359C97.5833 16.2943 98.0716 15.2721 98.6055 14.2695C99.1393 13.2539 99.7578 12.2643 100.461 11.3008ZM116.38 35.8516C116.653 36.2292 117.005 36.5352 117.434 36.7695C117.864 36.9909 118.391 37.1016 119.016 37.1016C119.654 37.1016 120.234 36.9518 120.755 36.6523C121.276 36.3398 121.751 35.9362 122.18 35.4414C122.61 34.9466 122.994 34.3932 123.333 33.7812C123.671 33.1693 123.977 32.5573 124.251 31.9453C124.316 31.8021 124.407 31.6979 124.524 31.6328C124.641 31.5547 124.772 31.5156 124.915 31.5156C125.136 31.5156 125.312 31.5938 125.442 31.75C125.585 31.9062 125.657 32.0755 125.657 32.2578C125.657 32.3229 125.651 32.3815 125.638 32.4336C125.624 32.4727 125.605 32.5182 125.579 32.5703C124.68 34.5495 123.697 36.0404 122.63 37.043C121.575 38.0456 120.377 38.5599 119.036 38.5859C118.177 38.5859 117.434 38.4167 116.809 38.0781C116.184 37.7526 115.67 37.3294 115.266 36.8086C114.863 36.2747 114.563 35.6758 114.368 35.0117C114.173 34.3477 114.075 33.6836 114.075 33.0195C114.075 32.3555 114.153 31.7435 114.309 31.1836C114.479 30.6237 114.713 30.1354 115.013 29.7188C115.325 29.3021 115.69 28.9766 116.106 28.7422C116.536 28.5078 117.005 28.3906 117.513 28.3906C117.812 28.3906 118.105 28.4557 118.391 28.5859C118.691 28.7031 118.958 28.8789 119.192 29.1133C119.427 29.3346 119.615 29.6081 119.759 29.9336C119.902 30.2591 119.973 30.6302 119.973 31.0469C119.973 31.5807 119.882 32.082 119.7 32.5508C119.518 33.0195 119.264 33.4557 118.938 33.8594C118.626 34.263 118.248 34.6341 117.805 34.9727C117.363 35.3112 116.888 35.6042 116.38 35.8516ZM115.794 34.582C116.197 34.4128 116.562 34.1979 116.888 33.9375C117.226 33.6771 117.513 33.3906 117.747 33.0781C117.981 32.7656 118.164 32.4401 118.294 32.1016C118.424 31.75 118.489 31.3984 118.489 31.0469C118.489 30.6562 118.391 30.3633 118.196 30.168C118.001 29.9596 117.773 29.8555 117.513 29.8555C117.161 29.8555 116.861 29.9531 116.614 30.1484C116.367 30.3438 116.165 30.5977 116.009 30.9102C115.852 31.2227 115.735 31.5742 115.657 31.9648C115.592 32.3424 115.559 32.7201 115.559 33.0977C115.559 33.332 115.579 33.5794 115.618 33.8398C115.67 34.1003 115.729 34.3477 115.794 34.582ZM138.568 32.5508C138.516 32.6549 138.405 32.8763 138.236 33.2148C138.08 33.5404 137.871 33.918 137.611 34.3477C137.364 34.7773 137.071 35.2266 136.732 35.6953C136.393 36.1641 136.016 36.5938 135.599 36.9844C135.183 37.375 134.733 37.7005 134.252 37.9609C133.77 38.2083 133.262 38.332 132.728 38.332C131.973 38.332 131.335 38.0911 130.814 37.6094C130.306 37.1276 129.935 36.5221 129.701 35.793C129.258 36.5352 128.731 37.1276 128.119 37.5703C127.507 38 126.895 38.2148 126.283 38.2148C125.801 38.2148 125.365 38.1302 124.974 37.9609C124.584 37.7786 124.252 37.5312 123.978 37.2188C123.705 36.8932 123.49 36.5156 123.334 36.0859C123.19 35.6562 123.119 35.1875 123.119 34.6797C123.119 33.6641 123.288 32.7721 123.627 32.0039C123.978 31.2227 124.421 30.5716 124.955 30.0508C125.489 29.5299 126.074 29.1393 126.713 28.8789C127.364 28.6185 127.989 28.4883 128.588 28.4883C128.991 28.4883 129.362 28.5469 129.701 28.6641C130.039 28.7682 130.326 28.8854 130.56 29.0156C130.808 29.1458 130.996 29.2695 131.127 29.3867C131.257 29.4909 131.328 29.5495 131.341 29.5625C131.485 29.7318 131.556 29.9076 131.556 30.0898C131.556 30.2852 131.485 30.4609 131.341 30.6172C131.198 30.7604 131.029 30.832 130.834 30.832C130.625 30.832 130.449 30.7604 130.306 30.6172C130.28 30.5911 130.222 30.5456 130.13 30.4805C130.039 30.4023 129.916 30.3242 129.759 30.2461C129.603 30.168 129.414 30.1029 129.193 30.0508C128.985 29.9857 128.744 29.9531 128.47 29.9531C128.067 29.9531 127.637 30.0443 127.181 30.2266C126.726 30.4089 126.309 30.6953 125.931 31.0859C125.554 31.4635 125.235 31.9453 124.974 32.5312C124.727 33.1042 124.603 33.7878 124.603 34.582C124.603 34.8294 124.629 35.0833 124.681 35.3438C124.733 35.5911 124.824 35.819 124.955 36.0273C125.085 36.2357 125.261 36.4049 125.482 36.5352C125.703 36.6654 125.977 36.7305 126.302 36.7305C126.537 36.7305 126.804 36.6523 127.103 36.4961C127.416 36.3398 127.709 36.099 127.982 35.7734C128.268 35.4479 128.522 35.0378 128.744 34.543C128.978 34.0482 129.141 33.4622 129.232 32.7852C129.258 32.6029 129.343 32.4531 129.486 32.3359C129.629 32.2057 129.798 32.1406 129.994 32.1406C130.176 32.1406 130.332 32.2122 130.463 32.3555C130.606 32.4987 130.684 32.6615 130.697 32.8438C130.71 33.0911 130.736 33.4427 130.775 33.8984C130.814 34.3411 130.899 34.7839 131.029 35.2266C131.172 35.6693 131.38 36.0534 131.654 36.3789C131.927 36.7044 132.305 36.8672 132.787 36.8672C133.099 36.8672 133.405 36.7826 133.705 36.6133C134.017 36.444 134.317 36.2227 134.603 35.9492C134.903 35.6628 135.183 35.3438 135.443 34.9922C135.716 34.6276 135.964 34.263 136.185 33.8984C136.407 33.5339 136.602 33.1823 136.771 32.8438C136.94 32.5052 137.084 32.2122 137.201 31.9648C137.266 31.8216 137.357 31.7109 137.474 31.6328C137.604 31.5547 137.741 31.5156 137.884 31.5156C138.106 31.5156 138.282 31.6003 138.412 31.7695C138.555 31.9258 138.627 32.0951 138.627 32.2773C138.627 32.3685 138.607 32.4596 138.568 32.5508ZM142.905 35.8125C142.449 36.5547 141.915 37.1406 141.303 37.5703C140.704 38 140.099 38.2148 139.487 38.2148C138.992 38.2148 138.549 38.1237 138.159 37.9414C137.768 37.7591 137.429 37.5052 137.143 37.1797C136.857 36.8411 136.635 36.4375 136.479 35.9688C136.336 35.5 136.264 34.9727 136.264 34.3867C136.264 33.4753 136.349 32.668 136.518 31.9648C136.7 31.2617 136.896 30.6758 137.104 30.207C137.312 29.7253 137.508 29.3607 137.69 29.1133C137.872 28.8659 137.963 28.7422 137.963 28.7422C138.028 28.6641 138.107 28.6055 138.198 28.5664C138.302 28.5273 138.406 28.5078 138.51 28.5078C138.718 28.5078 138.888 28.5859 139.018 28.7422C139.161 28.8854 139.233 29.0547 139.233 29.25C139.233 29.3281 139.213 29.4062 139.174 29.4844C139.148 29.5625 139.116 29.6406 139.077 29.7188C139.011 29.8359 138.907 30.0182 138.764 30.2656C138.621 30.5 138.471 30.8125 138.315 31.2031C138.159 31.5938 138.022 32.056 137.905 32.5898C137.787 33.1107 137.729 33.7096 137.729 34.3867C137.729 35.1549 137.879 35.7409 138.178 36.1445C138.491 36.5352 138.927 36.7305 139.487 36.7305C139.721 36.7305 139.988 36.6589 140.287 36.5156C140.6 36.3594 140.899 36.125 141.186 35.8125C141.485 35.5 141.746 35.1029 141.967 34.6211C142.189 34.1393 142.332 33.5729 142.397 32.9219L142.69 29.5625C142.716 29.3672 142.801 29.2044 142.944 29.0742C143.087 28.944 143.256 28.8789 143.452 28.8789C143.673 28.8789 143.849 28.9635 143.979 29.1328C144.109 29.2891 144.174 29.4714 144.174 29.6797L143.92 32.9219C143.894 33.1953 143.901 33.5534 143.94 33.9961C143.992 34.4388 144.09 34.875 144.233 35.3047C144.376 35.7344 144.591 36.1055 144.877 36.418C145.164 36.7174 145.541 36.8672 146.01 36.8672C146.349 36.8672 146.681 36.7826 147.006 36.6133C147.332 36.431 147.644 36.1966 147.944 35.9102C148.243 35.6237 148.517 35.3047 148.764 34.9531C149.024 34.5885 149.259 34.224 149.467 33.8594C149.689 33.4948 149.877 33.1497 150.034 32.8242C150.19 32.4857 150.32 32.1992 150.424 31.9648C150.489 31.8216 150.58 31.7109 150.698 31.6328C150.815 31.5547 150.945 31.5156 151.088 31.5156C151.323 31.5156 151.505 31.5938 151.635 31.75C151.765 31.9062 151.83 32.0755 151.83 32.2578C151.83 32.362 151.811 32.4596 151.772 32.5508C151.72 32.6549 151.616 32.8763 151.459 33.2148C151.316 33.5404 151.121 33.918 150.873 34.3477C150.639 34.7643 150.353 35.207 150.014 35.6758C149.676 36.1445 149.298 36.5807 148.881 36.9844C148.465 37.375 148.009 37.7005 147.514 37.9609C147.032 38.2083 146.511 38.332 145.952 38.332C145.183 38.332 144.545 38.1172 144.037 37.6875C143.53 37.2448 143.152 36.6198 142.905 35.8125ZM165.464 18.4492C165.464 18.6576 165.392 18.8268 165.249 18.957C165.106 19.0742 164.93 19.1328 164.722 19.1328H154.82V19.3477C154.82 20.1419 154.761 20.9883 154.644 21.8867C154.527 22.7852 154.364 23.6836 154.155 24.582C153.96 25.4674 153.732 26.3333 153.472 27.1797C153.224 28.026 152.964 28.8073 152.691 29.5234C152.43 30.2396 152.17 30.8646 151.909 31.3984C151.649 31.9193 151.415 32.3099 151.206 32.5703C151.376 33.1693 151.577 33.7292 151.812 34.25C152.046 34.7578 152.307 35.207 152.593 35.5977C152.892 35.9753 153.211 36.2747 153.55 36.4961C153.889 36.7174 154.253 36.8281 154.644 36.8281C155.099 36.8281 155.549 36.6393 155.991 36.2617C156.447 35.8711 156.864 35.4154 157.241 34.8945C157.632 34.3607 157.971 33.8268 158.257 33.293C158.557 32.7461 158.771 32.3099 158.902 31.9844C159.032 31.6719 159.26 31.5156 159.585 31.5156C159.807 31.5156 159.982 31.5938 160.113 31.75C160.256 31.9062 160.327 32.0755 160.327 32.2578C160.327 32.349 160.308 32.4401 160.269 32.5312C160.23 32.6224 160.132 32.8307 159.976 33.1562C159.833 33.4818 159.637 33.8594 159.39 34.2891C159.155 34.7188 158.876 35.1745 158.55 35.6562C158.238 36.125 157.879 36.5547 157.476 36.9453C157.085 37.3359 156.662 37.6615 156.206 37.9219C155.751 38.1823 155.269 38.3125 154.761 38.3125C153.863 38.3125 153.055 38.0195 152.339 37.4336C151.623 36.8477 151.011 36.0273 150.503 34.9727C150.008 33.918 149.631 32.668 149.37 31.2227C149.11 29.7773 148.98 28.1953 148.98 26.4766C148.98 26.0469 148.986 25.5456 148.999 24.9727C149.012 24.3867 149.038 23.7747 149.077 23.1367C149.116 22.4857 149.175 21.8216 149.253 21.1445C149.331 20.4544 149.435 19.7839 149.566 19.1328H142.554C142.346 19.1328 142.17 19.0742 142.027 18.957C141.883 18.8268 141.812 18.6576 141.812 18.4492C141.812 18.2409 141.883 18.0781 142.027 17.9609C142.17 17.8307 142.346 17.7656 142.554 17.7656H149.898C150.028 17.2969 150.178 16.8672 150.347 16.4766C150.529 16.0859 150.731 15.7474 150.952 15.4609C151.187 15.1745 151.441 14.9531 151.714 14.7969C152.001 14.6276 152.313 14.543 152.652 14.543C152.977 14.543 153.257 14.6276 153.491 14.7969C153.739 14.9531 153.947 15.1745 154.116 15.4609C154.286 15.7474 154.416 16.0859 154.507 16.4766C154.611 16.8672 154.689 17.2969 154.741 17.7656H164.722C164.93 17.7656 165.106 17.8307 165.249 17.9609C165.392 18.0781 165.464 18.2409 165.464 18.4492ZM150.757 30.6172C151.148 29.7578 151.499 28.8333 151.812 27.8438C152.137 26.8411 152.411 25.832 152.632 24.8164C152.866 23.8008 153.042 22.8047 153.159 21.8281C153.29 20.8516 153.355 19.9531 153.355 19.1328H151.05C150.868 19.9401 150.718 20.9427 150.601 22.1406C150.497 23.3255 150.445 24.7708 150.445 26.4766C150.445 27.4271 150.471 28.2279 150.523 28.8789C150.575 29.5169 150.653 30.0964 150.757 30.6172ZM152.573 16.0078C152.456 16.0078 152.287 16.138 152.066 16.3984C151.844 16.6458 151.623 17.1016 151.402 17.7656H153.277C153.211 17.2188 153.114 16.7891 152.984 16.4766C152.866 16.1641 152.73 16.0078 152.573 16.0078ZM151.07 32.0234V32.043V32.0234ZM165.445 38.2734C165.901 37.8177 166.363 37.3555 166.832 36.8867C167.301 36.4049 167.757 35.9036 168.199 35.3828C168.642 34.862 169.052 34.3216 169.43 33.7617C169.82 33.1888 170.165 32.5833 170.465 31.9453C170.53 31.8021 170.621 31.6979 170.738 31.6328C170.855 31.5547 170.986 31.5156 171.129 31.5156C171.35 31.5156 171.526 31.5938 171.656 31.75C171.799 31.9062 171.871 32.082 171.871 32.2773C171.871 32.3815 171.852 32.4792 171.812 32.5703C171.409 33.4167 170.947 34.1914 170.426 34.8945C169.905 35.5977 169.358 36.2682 168.785 36.9062C168.212 37.5312 167.633 38.1367 167.047 38.7227C166.461 39.3216 165.901 39.9206 165.367 40.5195C165.315 41.418 165.315 42.3164 165.367 43.2148C165.419 44.1263 165.445 45.0898 165.445 46.1055C165.445 46.9388 165.419 47.7721 165.367 48.6055C165.315 49.4388 165.23 50.2331 165.113 50.9883C164.996 51.7565 164.833 52.4727 164.625 53.1367C164.43 53.8008 164.176 54.3737 163.863 54.8555C163.551 55.3503 163.186 55.7344 162.77 56.0078C162.353 56.2943 161.865 56.4375 161.305 56.4375C160.38 56.4375 159.671 56.1185 159.176 55.4805C158.681 54.8424 158.434 53.9505 158.434 52.8047C158.434 52.1797 158.499 51.5091 158.629 50.793C158.772 50.0768 158.967 49.3346 159.215 48.5664C159.462 47.8112 159.755 47.043 160.094 46.2617C160.445 45.4805 160.823 44.7188 161.227 43.9766C161.63 43.2344 162.06 42.5247 162.516 41.8477C162.971 41.1836 163.434 40.5781 163.902 40.0312C163.928 39.4062 163.954 38.7552 163.98 38.0781C164.02 37.4141 164.059 36.7956 164.098 36.2227C163.759 36.8216 163.336 37.3034 162.828 37.668C162.333 38.0326 161.786 38.2148 161.188 38.2148C160.198 38.2148 159.423 37.8828 158.863 37.2188C158.303 36.5547 158.023 35.6432 158.023 34.4844C158.023 33.638 158.102 32.8698 158.258 32.1797C158.427 31.4766 158.603 30.8776 158.785 30.3828C158.98 29.875 159.156 29.4909 159.312 29.2305C159.469 28.957 159.547 28.8268 159.547 28.8398C159.69 28.6185 159.892 28.5078 160.152 28.5078C160.374 28.5078 160.549 28.5859 160.68 28.7422C160.823 28.8854 160.895 29.0547 160.895 29.25C160.895 29.3932 160.855 29.5234 160.777 29.6406C160.79 29.6276 160.725 29.7383 160.582 29.9727C160.452 30.194 160.302 30.5195 160.133 30.9492C159.977 31.3789 159.827 31.8932 159.684 32.4922C159.553 33.0911 159.488 33.7487 159.488 34.4648C159.488 35.181 159.618 35.7409 159.879 36.1445C160.139 36.5482 160.562 36.75 161.148 36.75C161.891 36.75 162.561 36.2031 163.16 35.1094C163.759 34.0026 164.267 32.401 164.684 30.3047C164.71 30.1354 164.788 29.9987 164.918 29.8945C165.048 29.7773 165.204 29.7188 165.387 29.7188C165.595 29.7188 165.771 29.7904 165.914 29.9336C166.057 30.0768 166.129 30.2526 166.129 30.4609C166.129 30.5 166.103 30.7344 166.051 31.1641C165.999 31.5807 165.934 32.1406 165.855 32.8438C165.79 33.5469 165.719 34.3672 165.641 35.3047C165.562 36.2292 165.497 37.2188 165.445 38.2734ZM163.883 42.4141C163.297 43.2604 162.757 44.1523 162.262 45.0898C161.78 46.0273 161.363 46.9583 161.012 47.8828C160.66 48.8073 160.387 49.6927 160.191 50.5391C159.996 51.3854 159.898 52.1406 159.898 52.8047C159.898 53.4818 160.009 54.0091 160.23 54.3867C160.452 54.7773 160.803 54.9727 161.285 54.9727C161.715 54.9727 162.092 54.7578 162.418 54.3281C162.757 53.9115 163.036 53.3125 163.258 52.5312C163.492 51.75 163.668 50.7995 163.785 49.6797C163.902 48.5729 163.961 47.3294 163.961 45.9492C163.961 45.3893 163.948 44.8229 163.922 44.25C163.909 43.6771 163.896 43.0651 163.883 42.4141Z" fill="black"/>
<path d="M35.0361 57.8906L37.3604 63.6914L39.6846 57.8906H40.9004V65H39.9629V62.2314L40.0508 59.2432L37.7168 65H36.999L34.6699 59.2578L34.7627 62.2314V65H33.8252V57.8906H35.0361ZM49.0693 63.1445H46.0908L45.4219 65H44.4551L47.1699 57.8906H47.9902L50.71 65H49.748L49.0693 63.1445ZM46.374 62.373H48.791L47.5801 59.0479L46.374 62.373ZM55.9736 61.6943L55.1045 62.5977V65H54.167V57.8906H55.1045V61.4062L58.2637 57.8906H59.3965L56.5986 61.0303L59.6162 65H58.4932L55.9736 61.6943ZM66.9551 61.7139H63.874V64.2334H67.4531V65H62.9365V57.8906H67.4043V58.6621H63.874V60.9473H66.9551V61.7139ZM76.125 57.8906V62.7246C76.1217 63.3952 75.9102 63.9437 75.4902 64.3701C75.0736 64.7965 74.5072 65.0358 73.791 65.0879L73.542 65.0977C72.764 65.0977 72.1439 64.8877 71.6816 64.4678C71.2194 64.0479 70.985 63.4701 70.9785 62.7344V57.8906H71.9062V62.7051C71.9062 63.2194 72.0479 63.6198 72.3311 63.9062C72.6143 64.1895 73.0179 64.3311 73.542 64.3311C74.0726 64.3311 74.4779 64.1895 74.7578 63.9062C75.041 63.623 75.1826 63.2243 75.1826 62.71V57.8906H76.125ZM81.042 62.2168V65H80.1045V57.8906H82.7266C83.5046 57.8906 84.1133 58.0892 84.5527 58.4863C84.9954 58.8835 85.2168 59.4092 85.2168 60.0635C85.2168 60.7536 85.0003 61.2858 84.5674 61.6602C84.1377 62.0312 83.5208 62.2168 82.7168 62.2168H81.042ZM81.042 61.4502H82.7266C83.2279 61.4502 83.612 61.333 83.8789 61.0986C84.1458 60.861 84.2793 60.5192 84.2793 60.0732C84.2793 59.6501 84.1458 59.3115 83.8789 59.0576C83.612 58.8037 83.2458 58.6719 82.7803 58.6621H81.042V61.4502ZM97.8193 63.1445H94.8408L94.1719 65H93.2051L95.9199 57.8906H96.7402L99.46 65H98.498L97.8193 63.1445ZM95.124 62.373H97.541L96.3301 59.0479L95.124 62.373ZM105.524 62.124H103.854V65H102.912V57.8906H105.266C106.066 57.8906 106.682 58.0729 107.111 58.4375C107.544 58.8021 107.761 59.3327 107.761 60.0293C107.761 60.472 107.64 60.8577 107.399 61.1865C107.162 61.5153 106.83 61.7611 106.403 61.9238L108.073 64.9414V65H107.067L105.524 62.124ZM103.854 61.3574H105.295C105.76 61.3574 106.13 61.237 106.403 60.9961C106.68 60.7552 106.818 60.4329 106.818 60.0293C106.818 59.5898 106.687 59.2529 106.423 59.0186C106.162 58.7842 105.785 58.6654 105.29 58.6621H103.854V61.3574ZM116.101 58.6621H113.815V65H112.883V58.6621H110.603V57.8906H116.101V58.6621ZM120.661 65H119.724V57.8906H120.661V65ZM126.975 61.8311C126.171 61.5999 125.585 61.3167 125.217 60.9814C124.852 60.6429 124.67 60.2262 124.67 59.7314C124.67 59.1715 124.893 58.7093 125.339 58.3447C125.788 57.9769 126.371 57.793 127.087 57.793C127.575 57.793 128.01 57.8874 128.391 58.0762C128.775 58.265 129.071 58.5254 129.279 58.8574C129.491 59.1895 129.597 59.5524 129.597 59.9463H128.654C128.654 59.5166 128.518 59.1797 128.244 58.9355C127.971 58.6882 127.585 58.5645 127.087 58.5645C126.625 58.5645 126.263 58.667 126.003 58.8721C125.746 59.0739 125.617 59.3555 125.617 59.7168C125.617 60.0065 125.739 60.2523 125.983 60.4541C126.231 60.6527 126.649 60.835 127.238 61.001C127.831 61.167 128.293 61.3509 128.625 61.5527C128.96 61.7513 129.208 61.984 129.367 62.251C129.53 62.5179 129.611 62.832 129.611 63.1934C129.611 63.7695 129.387 64.2318 128.938 64.5801C128.488 64.9251 127.888 65.0977 127.136 65.0977C126.647 65.0977 126.192 65.0049 125.769 64.8193C125.345 64.6305 125.018 64.3734 124.787 64.0479C124.559 63.7223 124.445 63.3529 124.445 62.9395H125.388C125.388 63.3691 125.546 63.7093 125.861 63.96C126.18 64.2074 126.605 64.3311 127.136 64.3311C127.631 64.3311 128.01 64.2301 128.273 64.0283C128.537 63.8265 128.669 63.5514 128.669 63.2031C128.669 62.8548 128.547 62.5863 128.303 62.3975C128.059 62.2054 127.616 62.0166 126.975 61.8311ZM138.229 58.6621H135.944V65H135.012V58.6621H132.731V57.8906H138.229V58.6621Z" fill="black"/>
<path d="M37.1562 34.8164C37.1432 34.8424 37.0651 34.9531 36.9219 35.1484C36.7786 35.3438 36.5703 35.5846 36.2969 35.8711C36.0365 36.1445 35.7044 36.444 35.3008 36.7695C34.9102 37.082 34.4414 37.375 33.8945 37.6484C33.3607 37.9089 32.7552 38.1302 32.0781 38.3125C31.401 38.4948 30.6523 38.5859 29.832 38.5859C28.556 38.5859 27.3581 38.4232 26.2383 38.0977C25.1185 37.7852 24.0378 37.3815 22.9961 36.8867C21.9674 36.3919 20.9518 35.8451 19.9492 35.2461C18.9466 34.6471 17.9245 34.0612 16.8828 33.4883C16.2448 34.556 15.5091 35.4284 14.6758 36.1055C13.8555 36.7695 12.9961 37.2904 12.0977 37.668C11.2122 38.0456 10.3268 38.2995 9.44141 38.4297C8.56901 38.5729 7.76172 38.6445 7.01953 38.6445C6.30339 38.6445 5.57422 38.5664 4.83203 38.4102C4.10286 38.2669 3.4388 38.026 2.83984 37.6875C2.25391 37.3359 1.77214 36.8802 1.39453 36.3203C1.01693 35.7604 0.828125 35.0638 0.828125 34.2305C0.828125 33.4492 1.01042 32.7461 1.375 32.1211C1.72656 31.4831 2.21484 30.9427 2.83984 30.5C3.47786 30.0573 4.22656 29.7188 5.08594 29.4844C5.94531 29.237 6.86979 29.1133 7.85938 29.1133C8.60156 29.1133 9.33724 29.1784 10.0664 29.3086C10.8086 29.4388 11.5312 29.6146 12.2344 29.8359C12.9375 30.0573 13.6211 30.3112 14.2852 30.5977C14.9492 30.8711 15.5742 31.151 16.1602 31.4375C16.2383 31.2031 16.3034 30.9688 16.3555 30.7344C16.4206 30.5 16.4727 30.2461 16.5117 29.9727C16.5638 29.6862 16.5964 29.3737 16.6094 29.0352C16.6354 28.6836 16.6484 28.2799 16.6484 27.8242C16.6484 27.3945 16.6354 26.9844 16.6094 26.5938C16.5964 26.2031 16.5768 25.7799 16.5508 25.3242C16.5378 24.8555 16.5182 24.3346 16.4922 23.7617C16.4792 23.1758 16.4727 22.4792 16.4727 21.6719C16.4727 19.8099 16.6549 18.1172 17.0195 16.5938C17.3841 15.0573 17.9245 13.7422 18.6406 12.6484C19.3568 11.5547 20.2487 10.7083 21.3164 10.1094C22.3841 9.4974 23.6276 9.19141 25.0469 9.19141C25.9062 9.19141 26.7201 9.32812 27.4883 9.60156C28.2695 9.875 28.9531 10.2656 29.5391 10.7734C30.138 11.2812 30.6068 11.8867 30.9453 12.5898C31.2969 13.293 31.4727 14.0742 31.4727 14.9336C31.4727 15.4023 31.4076 15.8906 31.2773 16.3984C31.1471 16.9062 30.9648 17.375 30.7305 17.8047C30.5091 18.2214 30.2487 18.5664 29.9492 18.8398C29.6628 19.1133 29.3568 19.25 29.0312 19.25C28.849 19.25 28.6862 19.1979 28.543 19.0938C28.3997 18.9896 28.3281 18.8268 28.3281 18.6055C28.3281 18.4492 28.3607 18.319 28.4258 18.2148C28.5039 18.0977 28.5951 17.9935 28.6992 17.9023C29.0768 17.5638 29.3828 17.1471 29.6172 16.6523C29.8646 16.1576 29.9883 15.5846 29.9883 14.9336C29.9883 14.2826 29.8516 13.6966 29.5781 13.1758C29.3177 12.6419 28.9596 12.1927 28.5039 11.8281C28.0612 11.4505 27.5404 11.1641 26.9414 10.9688C26.3555 10.7604 25.737 10.6562 25.0859 10.6562C23.862 10.6562 22.8008 10.9232 21.9023 11.457C21.0039 11.9909 20.2617 12.7461 19.6758 13.7227C19.0898 14.6862 18.6536 15.8581 18.3672 17.2383C18.0938 18.6055 17.957 20.1289 17.957 21.8086C17.957 22.6159 17.9635 23.3255 17.9766 23.9375C18.0026 24.5495 18.0221 25.1094 18.0352 25.6172C18.0612 26.125 18.0807 26.6068 18.0938 27.0625C18.1198 27.5052 18.1328 27.9609 18.1328 28.4297C18.1328 28.7031 18.1198 29.0026 18.0938 29.3281C18.0677 29.6406 18.0286 29.9661 17.9766 30.3047C17.9245 30.6302 17.8529 30.9557 17.7617 31.2812C17.6836 31.5938 17.5924 31.8802 17.4883 32.1406C18.4779 32.6615 19.4544 33.2148 20.418 33.8008C21.3815 34.3867 22.3581 34.9271 23.3477 35.4219C24.3503 35.9036 25.3789 36.3073 26.4336 36.6328C27.5013 36.9453 28.6276 37.1016 29.8125 37.1016C30.8542 37.1016 31.7526 36.9453 32.5078 36.6328C33.276 36.3203 33.9076 35.9753 34.4023 35.5977C34.9102 35.207 35.2878 34.8555 35.5352 34.543C35.7826 34.2174 35.9062 34.0482 35.9062 34.0352C36.0495 33.8008 36.2578 33.6836 36.5312 33.6836C36.7526 33.6836 36.9284 33.7617 37.0586 33.918C37.2018 34.0742 37.2734 34.2435 37.2734 34.4258C37.2734 34.569 37.2344 34.6992 37.1562 34.8164ZM15.5938 32.7656C15.0339 32.4922 14.4414 32.2253 13.8164 31.9648C13.2044 31.6914 12.5729 31.4505 11.9219 31.2422C11.2708 31.0339 10.6003 30.8711 9.91016 30.7539C9.23307 30.6237 8.55599 30.5586 7.87891 30.5586C7.11068 30.5586 6.38802 30.6432 5.71094 30.8125C5.03385 30.9688 4.44141 31.2031 3.93359 31.5156C3.42578 31.8281 3.02214 32.2057 2.72266 32.6484C2.4362 33.0911 2.29297 33.5924 2.29297 34.1523C2.29297 34.6732 2.42318 35.1289 2.68359 35.5195C2.94401 35.8971 3.28906 36.2161 3.71875 36.4766C4.16146 36.724 4.66927 36.9128 5.24219 37.043C5.8151 37.1602 6.41406 37.2188 7.03906 37.2188C7.79427 37.2188 8.57552 37.1602 9.38281 37.043C10.1901 36.9128 10.9714 36.6849 11.7266 36.3594C12.4818 36.0208 13.1914 35.5651 13.8555 34.9922C14.5195 34.4062 15.099 33.6641 15.5938 32.7656ZM40.3406 35.8516C40.6141 36.2292 40.9656 36.5352 41.3953 36.7695C41.825 36.9909 42.3523 37.1016 42.9773 37.1016C43.6154 37.1016 44.1948 36.9518 44.7156 36.6523C45.2365 36.3398 45.7117 35.9362 46.1414 35.4414C46.5711 34.9466 46.9552 34.3932 47.2938 33.7812C47.6323 33.1693 47.9383 32.5573 48.2117 31.9453C48.2768 31.8021 48.368 31.6979 48.4852 31.6328C48.6023 31.5547 48.7326 31.5156 48.8758 31.5156C49.0971 31.5156 49.2729 31.5938 49.4031 31.75C49.5464 31.9062 49.618 32.0755 49.618 32.2578C49.618 32.3229 49.6115 32.3815 49.5984 32.4336C49.5854 32.4727 49.5659 32.5182 49.5398 32.5703C48.6414 34.5495 47.6583 36.0404 46.5906 37.043C45.5359 38.0456 44.338 38.5599 42.9969 38.5859C42.1375 38.5859 41.3953 38.4167 40.7703 38.0781C40.1453 37.7526 39.631 37.3294 39.2273 36.8086C38.8237 36.2747 38.5242 35.6758 38.3289 35.0117C38.1336 34.3477 38.0359 33.6836 38.0359 33.0195C38.0359 32.3555 38.1141 31.7435 38.2703 31.1836C38.4396 30.6237 38.674 30.1354 38.9734 29.7188C39.2859 29.3021 39.6505 28.9766 40.0672 28.7422C40.4969 28.5078 40.9656 28.3906 41.4734 28.3906C41.7729 28.3906 42.0659 28.4557 42.3523 28.5859C42.6518 28.7031 42.9188 28.8789 43.1531 29.1133C43.3875 29.3346 43.5763 29.6081 43.7195 29.9336C43.8628 30.2591 43.9344 30.6302 43.9344 31.0469C43.9344 31.5807 43.8432 32.082 43.6609 32.5508C43.4786 33.0195 43.2247 33.4557 42.8992 33.8594C42.5867 34.263 42.2091 34.6341 41.7664 34.9727C41.3237 35.3112 40.8484 35.6042 40.3406 35.8516ZM39.7547 34.582C40.1583 34.4128 40.5229 34.1979 40.8484 33.9375C41.187 33.6771 41.4734 33.3906 41.7078 33.0781C41.9422 32.7656 42.1245 32.4401 42.2547 32.1016C42.3849 31.75 42.45 31.3984 42.45 31.0469C42.45 30.6562 42.3523 30.3633 42.157 30.168C41.9617 29.9596 41.7339 29.8555 41.4734 29.8555C41.1219 29.8555 40.8224 29.9531 40.575 30.1484C40.3276 30.3438 40.1258 30.5977 39.9695 30.9102C39.8133 31.2227 39.6961 31.5742 39.618 31.9648C39.5529 32.3424 39.5203 32.7201 39.5203 33.0977C39.5203 33.332 39.5398 33.5794 39.5789 33.8398C39.631 34.1003 39.6896 34.3477 39.7547 34.582ZM58.5445 32.5898C58.4013 32.8893 58.219 33.2474 57.9977 33.6641C57.7893 34.0677 57.5484 34.4909 57.275 34.9336C57.0016 35.3763 56.6956 35.819 56.357 36.2617C56.0185 36.6914 55.6474 37.082 55.2438 37.4336C54.8531 37.7721 54.4299 38.0456 53.9742 38.2539C53.5315 38.4753 53.0563 38.5859 52.5484 38.5859C51.7672 38.5859 51.0966 38.3451 50.5367 37.8633C49.9768 37.3815 49.5016 36.75 49.1109 35.9688C48.7203 35.1875 48.4013 34.3021 48.1539 33.3125C47.9195 32.3099 47.7372 31.2943 47.607 30.2656C47.4768 29.224 47.3857 28.2148 47.3336 27.2383C47.2945 26.2617 47.275 25.3958 47.275 24.6406C47.275 23.5469 47.3076 22.4141 47.3727 21.2422C47.4508 20.0703 47.568 18.9245 47.7242 17.8047C47.8805 16.6849 48.0758 15.6237 48.3102 14.6211C48.5576 13.6185 48.844 12.7396 49.1695 11.9844C49.5081 11.2292 49.8922 10.6302 50.3219 10.1875C50.7516 9.74479 51.2398 9.52344 51.7867 9.52344C52.2164 9.52344 52.6005 9.6276 52.9391 9.83594C53.2906 10.0312 53.5836 10.3568 53.818 10.8125C54.0523 11.2682 54.2346 11.8607 54.3648 12.5898C54.4951 13.319 54.5602 14.2109 54.5602 15.2656C54.5602 16.5677 54.4234 17.9154 54.15 19.3086C53.8766 20.6888 53.5055 22.082 53.0367 23.4883C52.568 24.8945 52.0146 26.3008 51.3766 27.707C50.7385 29.1003 50.0549 30.4609 49.3258 31.7891C49.6513 33.4427 50.0875 34.7448 50.6344 35.6953C51.1813 36.6328 51.8388 37.1016 52.607 37.1016C53.1279 37.1016 53.6292 36.8997 54.1109 36.4961C54.5927 36.0794 55.0354 35.5911 55.4391 35.0312C55.8427 34.4714 56.1943 33.9049 56.4938 33.332C56.8063 32.7461 57.0471 32.2773 57.2164 31.9258C57.2815 31.7956 57.3727 31.6979 57.4898 31.6328C57.607 31.5547 57.7372 31.5156 57.8805 31.5156C58.1018 31.5156 58.2776 31.5938 58.4078 31.75C58.551 31.9062 58.6227 32.082 58.6227 32.2773C58.6227 32.3555 58.5966 32.4596 58.5445 32.5898ZM48.7594 24.7383C48.7594 25.5716 48.7789 26.3724 48.818 27.1406C48.857 27.9089 48.9091 28.6445 48.9742 29.3477C49.5211 28.293 50.0419 27.1732 50.5367 25.9883C51.0315 24.7904 51.4677 23.5859 51.8453 22.375C52.2229 21.151 52.5224 19.9401 52.7438 18.7422C52.9781 17.5312 53.0953 16.3789 53.0953 15.2852C53.0953 13.7487 52.9716 12.6484 52.7242 11.9844C52.4768 11.3203 52.1448 10.9883 51.7281 10.9883C51.4547 10.9883 51.1878 11.1771 50.9273 11.5547C50.6799 11.9323 50.4456 12.4466 50.2242 13.0977C50.0029 13.7487 49.801 14.5169 49.6188 15.4023C49.4365 16.2878 49.2802 17.2383 49.15 18.2539C49.0328 19.2695 48.9352 20.3307 48.857 21.4375C48.7919 22.5443 48.7594 23.6445 48.7594 24.7383ZM63.7016 38.2734C64.1573 37.8177 64.6195 37.3555 65.0883 36.8867C65.557 36.4049 66.0128 35.9036 66.4555 35.3828C66.8982 34.862 67.3083 34.3216 67.6859 33.7617C68.0766 33.1888 68.4216 32.5833 68.7211 31.9453C68.7862 31.8021 68.8773 31.6979 68.9945 31.6328C69.1117 31.5547 69.2419 31.5156 69.3852 31.5156C69.6065 31.5156 69.7823 31.5938 69.9125 31.75C70.0557 31.9062 70.1273 32.082 70.1273 32.2773C70.1273 32.3815 70.1078 32.4792 70.0687 32.5703C69.6651 33.4167 69.2029 34.1914 68.682 34.8945C68.1612 35.5977 67.6143 36.2682 67.0414 36.9062C66.4685 37.5312 65.8891 38.1367 65.3031 38.7227C64.7172 39.3216 64.1573 39.9206 63.6234 40.5195C63.5714 41.418 63.5714 42.3164 63.6234 43.2148C63.6755 44.1263 63.7016 45.0898 63.7016 46.1055C63.7016 46.9388 63.6755 47.7721 63.6234 48.6055C63.5714 49.4388 63.4867 50.2331 63.3695 50.9883C63.2523 51.7565 63.0896 52.4727 62.8812 53.1367C62.6859 53.8008 62.432 54.3737 62.1195 54.8555C61.807 55.3503 61.4424 55.7344 61.0258 56.0078C60.6091 56.2943 60.1208 56.4375 59.5609 56.4375C58.6365 56.4375 57.9268 56.1185 57.432 55.4805C56.9372 54.8424 56.6898 53.9505 56.6898 52.8047C56.6898 52.1797 56.7549 51.5091 56.8852 50.793C57.0284 50.0768 57.2237 49.3346 57.4711 48.5664C57.7185 47.8112 58.0115 47.043 58.35 46.2617C58.7016 45.4805 59.0792 44.7188 59.4828 43.9766C59.8865 43.2344 60.3161 42.5247 60.7719 41.8477C61.2276 41.1836 61.6898 40.5781 62.1586 40.0312C62.1846 39.4062 62.2107 38.7552 62.2367 38.0781C62.2758 37.4141 62.3148 36.7956 62.3539 36.2227C62.0154 36.8216 61.5922 37.3034 61.0844 37.668C60.5896 38.0326 60.0427 38.2148 59.4437 38.2148C58.4542 38.2148 57.6794 37.8828 57.1195 37.2188C56.5596 36.5547 56.2797 35.6432 56.2797 34.4844C56.2797 33.638 56.3578 32.8698 56.5141 32.1797C56.6833 31.4766 56.8591 30.8776 57.0414 30.3828C57.2367 29.875 57.4125 29.4909 57.5687 29.2305C57.725 28.957 57.8031 28.8268 57.8031 28.8398C57.9464 28.6185 58.1482 28.5078 58.4086 28.5078C58.6299 28.5078 58.8057 28.5859 58.9359 28.7422C59.0792 28.8854 59.1508 29.0547 59.1508 29.25C59.1508 29.3932 59.1117 29.5234 59.0336 29.6406C59.0466 29.6276 58.9815 29.7383 58.8383 29.9727C58.7081 30.194 58.5583 30.5195 58.3891 30.9492C58.2328 31.3789 58.0831 31.8932 57.9398 32.4922C57.8096 33.0911 57.7445 33.7487 57.7445 34.4648C57.7445 35.181 57.8747 35.7409 58.1352 36.1445C58.3956 36.5482 58.8187 36.75 59.4047 36.75C60.1469 36.75 60.8174 36.2031 61.4164 35.1094C62.0154 34.0026 62.5232 32.401 62.9398 30.3047C62.9659 30.1354 63.044 29.9987 63.1742 29.8945C63.3044 29.7773 63.4607 29.7188 63.643 29.7188C63.8513 29.7188 64.0271 29.7904 64.1703 29.9336C64.3135 30.0768 64.3852 30.2526 64.3852 30.4609C64.3852 30.5 64.3591 30.7344 64.307 31.1641C64.2549 31.5807 64.1898 32.1406 64.1117 32.8438C64.0466 33.5469 63.975 34.3672 63.8969 35.3047C63.8187 36.2292 63.7536 37.2188 63.7016 38.2734ZM62.1391 42.4141C61.5531 43.2604 61.0128 44.1523 60.518 45.0898C60.0362 46.0273 59.6195 46.9583 59.268 47.8828C58.9164 48.8073 58.643 49.6927 58.4477 50.5391C58.2523 51.3854 58.1547 52.1406 58.1547 52.8047C58.1547 53.4818 58.2654 54.0091 58.4867 54.3867C58.7081 54.7773 59.0596 54.9727 59.5414 54.9727C59.9711 54.9727 60.3487 54.7578 60.6742 54.3281C61.0128 53.9115 61.2927 53.3125 61.5141 52.5312C61.7484 51.75 61.9242 50.7995 62.0414 49.6797C62.1586 48.5729 62.2172 47.3294 62.2172 45.9492C62.2172 45.3893 62.2042 44.8229 62.1781 44.25C62.1651 43.6771 62.1521 43.0651 62.1391 42.4141Z" fill="black"/>
</svg>
