<svg width="158" height="37" viewBox="0 0 158 37" fill="none" xmlns="http://www.w3.org/2000/svg">
<path d="M7.43408 27.2441C5.49723 27.2441 3.91846 26.6501 2.69775 25.4619C1.48519 24.2738 0.878906 22.6909 0.878906 20.7134V20.3716C0.878906 19.0451 1.13525 17.861 1.64795 16.8193C2.16064 15.7695 2.88493 14.9639 3.8208 14.4023C4.76481 13.8327 5.83903 13.5479 7.04346 13.5479C8.8501 13.5479 10.2702 14.1175 11.3037 15.2568C12.3454 16.3962 12.8662 18.0116 12.8662 20.103V21.5435H4.45557C4.5695 22.4061 4.9113 23.0978 5.48096 23.6187C6.05876 24.1395 6.78711 24.3999 7.66602 24.3999C9.02507 24.3999 10.0871 23.9076 10.8521 22.9229L12.5854 24.8638C12.0565 25.6125 11.3403 26.1984 10.437 26.6216C9.53369 27.0366 8.53271 27.2441 7.43408 27.2441ZM7.03125 16.4043C6.33138 16.4043 5.76172 16.6403 5.32227 17.1123C4.89095 17.5843 4.61426 18.2598 4.49219 19.1387H9.39941V18.8579C9.38314 18.0767 9.17155 17.4744 8.76465 17.0513C8.35775 16.62 7.77995 16.4043 7.03125 16.4043ZM24.4385 13.792L24.5483 15.269C25.4842 14.1216 26.7497 13.5479 28.3447 13.5479C30.0456 13.5479 31.2134 14.2192 31.8481 15.562C32.7759 14.2192 34.0983 13.5479 35.8154 13.5479C37.2477 13.5479 38.3138 13.967 39.0137 14.8052C39.7135 15.6353 40.0635 16.8885 40.0635 18.5649V27H36.5234V18.5771C36.5234 17.8285 36.377 17.2832 36.084 16.9414C35.791 16.5915 35.2743 16.4165 34.5337 16.4165C33.4757 16.4165 32.7433 16.9211 32.3364 17.9302L32.3486 27H28.8208V18.5894C28.8208 17.8244 28.6702 17.271 28.3691 16.9292C28.068 16.5874 27.5553 16.4165 26.8311 16.4165C25.8301 16.4165 25.1058 16.8315 24.6582 17.6616V27H21.1304V13.792H24.4385ZM60.9375 20.5181C60.9375 22.634 60.4858 24.286 59.5825 25.4741C58.6792 26.6541 57.4178 27.2441 55.7983 27.2441C54.366 27.2441 53.2227 26.6948 52.3682 25.5962L52.2095 27H49.0356V8.25H52.5635V14.9761C53.3773 14.0239 54.4474 13.5479 55.7739 13.5479C57.3853 13.5479 58.6466 14.1419 59.5581 15.3301C60.4777 16.5101 60.9375 18.1743 60.9375 20.3228V20.5181ZM57.4097 20.2617C57.4097 18.9271 57.1981 17.9546 56.7749 17.3442C56.3517 16.7257 55.721 16.4165 54.8828 16.4165C53.7598 16.4165 52.9867 16.8763 52.5635 17.7959V23.0083C52.9948 23.936 53.776 24.3999 54.9072 24.3999C56.0465 24.3999 56.7952 23.8384 57.1533 22.7153C57.3242 22.1782 57.4097 21.3604 57.4097 20.2617ZM76.7944 17.1001C76.3143 17.035 75.8911 17.0024 75.5249 17.0024C74.1903 17.0024 73.3154 17.4541 72.9004 18.3574V27H69.3726V13.792H72.7051L72.8027 15.3667C73.5107 14.1541 74.4914 13.5479 75.7446 13.5479C76.1353 13.5479 76.5015 13.6007 76.8433 13.7065L76.7944 17.1001ZM88.4766 27H84.9365V13.792H88.4766V27ZM84.729 10.374C84.729 9.84505 84.904 9.40967 85.2539 9.06787C85.612 8.72607 86.0962 8.55518 86.7065 8.55518C87.3088 8.55518 87.7889 8.72607 88.147 9.06787C88.505 9.40967 88.6841 9.84505 88.6841 10.374C88.6841 10.9111 88.501 11.3506 88.1348 11.6924C87.7767 12.0342 87.3006 12.2051 86.7065 12.2051C86.1125 12.2051 85.6323 12.0342 85.2661 11.6924C84.908 11.3506 84.729 10.9111 84.729 10.374ZM97.0947 20.2739C97.0947 18.9637 97.347 17.7959 97.8516 16.7705C98.3561 15.7451 99.0804 14.9517 100.024 14.3901C100.977 13.8286 102.079 13.5479 103.333 13.5479C105.115 13.5479 106.567 14.0931 107.69 15.1836C108.822 16.2741 109.452 17.7552 109.583 19.627L109.607 20.5303C109.607 22.5566 109.041 24.1842 107.91 25.4131C106.779 26.6338 105.261 27.2441 103.357 27.2441C101.453 27.2441 99.9308 26.6338 98.7915 25.4131C97.6603 24.1924 97.0947 22.5322 97.0947 20.4326V20.2739ZM100.623 20.5303C100.623 21.7835 100.859 22.7438 101.331 23.4111C101.803 24.0703 102.478 24.3999 103.357 24.3999C104.211 24.3999 104.879 24.0744 105.359 23.4233C105.839 22.7642 106.079 21.7144 106.079 20.2739C106.079 19.0451 105.839 18.0929 105.359 17.4175C104.879 16.742 104.203 16.4043 103.333 16.4043C102.47 16.4043 101.803 16.742 101.331 17.4175C100.859 18.0848 100.623 19.1224 100.623 20.5303Z" fill="black"/>
<path d="M124.726 20.5942C124.726 21.3429 124.592 21.9818 124.323 22.5107C124.055 23.0397 123.725 23.4425 123.334 23.7192H123.383C123.863 23.7192 124.299 23.6134 124.689 23.4019C125.088 23.1821 125.446 22.9054 125.764 22.5718C126.081 22.23 126.366 21.8516 126.618 21.4365C126.87 21.0215 127.094 20.6187 127.29 20.228C127.33 20.1385 127.387 20.0693 127.46 20.0205C127.542 19.9717 127.627 19.9473 127.717 19.9473C127.855 19.9473 127.965 19.9961 128.046 20.0938C128.128 20.1914 128.168 20.2972 128.168 20.4111C128.168 20.4762 128.156 20.5373 128.132 20.5942C127.92 21.0662 127.668 21.5423 127.375 22.0225C127.082 22.4945 126.74 22.9217 126.35 23.3042C125.959 23.6867 125.52 23.9959 125.031 24.2319C124.543 24.4761 124.002 24.5981 123.408 24.5981C122.976 24.5981 122.557 24.529 122.15 24.3906C121.743 24.2604 121.385 24.0529 121.076 23.7681C120.962 23.6785 120.865 23.585 120.783 23.4873C120.702 23.3815 120.637 23.2839 120.588 23.1943C120.572 23.1781 120.563 23.1618 120.563 23.1455C120.515 23.0723 120.49 22.995 120.49 22.9136C120.49 22.8078 120.527 22.7101 120.6 22.6206C120.608 22.6043 120.616 22.5962 120.625 22.5962C120.633 22.5881 120.641 22.5799 120.649 22.5718C120.73 22.4985 120.82 22.4578 120.917 22.4497H120.954C120.995 22.4497 121.023 22.4538 121.04 22.4619C121.048 22.4619 121.052 22.466 121.052 22.4741C121.06 22.4741 121.068 22.4741 121.076 22.4741C121.101 22.4741 121.129 22.4823 121.162 22.4985C121.17 22.5067 121.178 22.5107 121.186 22.5107C121.259 22.5596 121.32 22.6206 121.369 22.6938C121.426 22.7915 121.491 22.881 121.564 22.9624C121.63 23.0275 121.707 23.0885 121.796 23.1455C121.886 23.1943 121.988 23.2188 122.102 23.2188C122.305 23.2188 122.508 23.1577 122.712 23.0356C122.915 22.9136 123.098 22.7386 123.261 22.5107C123.424 22.2829 123.554 22.0062 123.652 21.6807C123.758 21.3551 123.811 20.993 123.811 20.5942C123.811 20.3013 123.778 20.0531 123.713 19.8496C123.656 19.638 123.579 19.4671 123.481 19.3369C123.391 19.2067 123.294 19.1131 123.188 19.0562C123.082 18.991 122.98 18.9585 122.883 18.9585C122.663 18.9585 122.439 19.0724 122.211 19.3003C121.992 19.5282 121.772 19.8171 121.552 20.167C121.333 20.5169 121.113 20.9035 120.893 21.3267C120.681 21.7498 120.466 22.1608 120.246 22.5596C120.23 23.8779 120.205 25.1353 120.173 26.3315C120.148 27.5278 120.1 28.6387 120.026 29.6641C119.961 30.6895 119.868 31.6172 119.746 32.4473C119.624 33.2773 119.457 33.9854 119.245 34.5713C119.034 35.1654 118.773 35.6211 118.464 35.9385C118.155 36.2559 117.776 36.4146 117.329 36.4146C117.19 36.4146 117.032 36.3861 116.853 36.3291C116.674 36.2721 116.507 36.1541 116.352 35.9751C116.197 35.8042 116.067 35.556 115.961 35.2305C115.856 34.9049 115.803 34.4696 115.803 33.9243C115.803 33.2326 115.888 32.431 116.059 31.5195C116.23 30.6081 116.474 29.6396 116.792 28.6143C117.101 27.597 117.471 26.5513 117.902 25.4771C118.334 24.4028 118.81 23.3571 119.331 22.3398C119.331 22.055 119.331 21.7743 119.331 21.4976C119.339 21.2209 119.343 20.9523 119.343 20.6919C119.237 20.814 119.111 20.875 118.964 20.875C118.826 20.875 118.716 20.8262 118.635 20.7285C118.553 20.6309 118.513 20.5251 118.513 20.4111C118.513 20.3542 118.525 20.2931 118.549 20.228C118.745 19.7804 118.895 19.3573 119.001 18.9585C119.107 18.5516 119.184 18.1976 119.233 17.8965C119.29 17.5872 119.322 17.3431 119.331 17.1641C119.339 16.985 119.343 16.8914 119.343 16.8833C119.343 16.7612 119.388 16.6554 119.477 16.5659C119.567 16.4764 119.676 16.4316 119.807 16.4316C119.929 16.4316 120.035 16.4764 120.124 16.5659C120.214 16.6473 120.258 16.7531 120.258 16.8833V20.6309C120.445 20.3135 120.633 20.0002 120.82 19.6909C121.007 19.3817 121.202 19.105 121.406 18.8608C121.617 18.6167 121.841 18.4214 122.077 18.2749C122.321 18.1203 122.59 18.043 122.883 18.043C123.16 18.043 123.412 18.1081 123.64 18.2383C123.868 18.3685 124.063 18.5475 124.226 18.7754C124.388 19.0033 124.51 19.2759 124.592 19.5933C124.681 19.9025 124.726 20.2362 124.726 20.5942ZM119.306 24.5127C118.907 25.4079 118.545 26.3071 118.22 27.2104C117.902 28.1138 117.634 28.9845 117.414 29.8228C117.186 30.661 117.011 31.4463 116.889 32.1787C116.767 32.9111 116.706 33.554 116.706 34.1074C116.706 34.2458 116.714 34.3963 116.73 34.5591C116.747 34.7218 116.779 34.8724 116.828 35.0107C116.877 35.1491 116.946 35.263 117.036 35.3525C117.125 35.4502 117.243 35.499 117.39 35.499C117.658 35.499 117.89 35.3281 118.085 34.9863C118.281 34.6527 118.444 34.1969 118.574 33.6191C118.712 33.0495 118.826 32.3903 118.916 31.6416C119.005 30.901 119.074 30.1239 119.123 29.3101C119.18 28.4963 119.221 27.6743 119.245 26.8442C119.27 26.0223 119.29 25.2451 119.306 24.5127ZM127.766 22.9624C127.896 22.6857 128.047 22.3887 128.218 22.0713C128.389 21.7458 128.572 21.4162 128.767 21.0825C128.962 20.7407 129.17 20.403 129.39 20.0693C129.609 19.7357 129.837 19.4224 130.073 19.1294C130.309 18.8446 130.545 18.6411 130.781 18.519C131.025 18.3888 131.253 18.3237 131.465 18.3237C131.676 18.3237 131.86 18.3685 132.014 18.458C132.177 18.5394 132.307 18.6533 132.405 18.7998C132.511 18.9463 132.588 19.1172 132.637 19.3125C132.694 19.5078 132.722 19.7194 132.722 19.9473C132.722 20.1344 132.702 20.3867 132.661 20.7041C132.629 21.0133 132.612 21.3389 132.612 21.6807C132.612 21.876 132.62 22.0713 132.637 22.2666C132.661 22.4538 132.698 22.6247 132.747 22.7793C132.804 22.9258 132.885 23.0479 132.991 23.1455C133.097 23.235 133.235 23.2798 133.406 23.2798C133.601 23.2798 133.796 23.2269 133.992 23.1211C134.187 23.0072 134.378 22.8607 134.565 22.6816C134.753 22.4945 134.932 22.291 135.103 22.0713C135.273 21.8434 135.428 21.6196 135.566 21.3999C135.705 21.172 135.827 20.9564 135.933 20.7529C136.038 20.5413 136.124 20.3664 136.189 20.228C136.27 20.0409 136.413 19.9473 136.616 19.9473C136.755 19.9473 136.864 19.9961 136.946 20.0938C137.027 20.1914 137.068 20.2972 137.068 20.4111C137.068 20.4762 137.056 20.5373 137.031 20.5942C136.999 20.6593 136.934 20.7936 136.836 20.9971C136.746 21.2005 136.62 21.4365 136.458 21.7051C136.303 21.9736 136.12 22.2544 135.908 22.5474C135.697 22.8403 135.461 23.113 135.2 23.3652C134.948 23.6094 134.671 23.8128 134.37 23.9756C134.077 24.1302 133.768 24.2075 133.442 24.2075C133.068 24.2075 132.767 24.1302 132.539 23.9756C132.311 23.8128 132.132 23.6094 132.002 23.3652C131.88 23.1211 131.794 22.8485 131.746 22.5474C131.705 22.2463 131.685 21.9533 131.685 21.6685C131.685 21.522 131.689 21.3674 131.697 21.2046C131.713 21.0337 131.729 20.8669 131.746 20.7041C131.762 20.5413 131.774 20.3908 131.782 20.2524C131.799 20.106 131.807 19.9839 131.807 19.8862C131.807 19.634 131.77 19.4631 131.697 19.3735C131.632 19.284 131.554 19.2393 131.465 19.2393C131.335 19.2393 131.184 19.3166 131.013 19.4712C130.85 19.6177 130.675 19.813 130.488 20.0571C130.309 20.3013 130.126 20.578 129.939 20.8872C129.76 21.1883 129.585 21.4894 129.414 21.7905C129.243 22.0916 129.089 22.3805 128.95 22.6572C128.812 22.9258 128.698 23.1496 128.608 23.3286C128.438 23.6704 128.263 23.8983 128.083 24.0122C127.913 24.1343 127.758 24.1953 127.62 24.1953C127.367 24.1953 127.172 24.0977 127.034 23.9023C126.903 23.6989 126.838 23.4548 126.838 23.1699V22.4009C126.838 20.8628 126.838 19.3979 126.838 18.0063C126.847 16.6066 126.867 15.3086 126.899 14.1123C126.94 12.9079 127.001 11.8215 127.083 10.853C127.172 9.87646 127.302 9.04639 127.473 8.36279C127.644 7.67106 127.86 7.13802 128.12 6.76367C128.389 6.38932 128.722 6.20215 129.121 6.20215C129.463 6.20215 129.752 6.29574 129.988 6.48291C130.224 6.67008 130.415 6.92643 130.562 7.25195C130.708 7.56934 130.814 7.94368 130.879 8.375C130.944 8.79818 130.977 9.24577 130.977 9.71777C130.977 10.6781 130.887 11.6221 130.708 12.5498C130.537 13.4694 130.305 14.3687 130.012 15.2476C129.719 16.1265 129.377 16.985 128.987 17.8232C128.596 18.6533 128.185 19.4631 127.754 20.2524C127.754 20.3989 127.754 20.5739 127.754 20.7773C127.754 20.9808 127.754 21.1842 127.754 21.3877C127.754 21.5911 127.754 21.7824 127.754 21.9614C127.754 22.1405 127.754 22.2829 127.754 22.3887L127.766 22.9624ZM127.766 18.458C128.108 17.7093 128.417 16.981 128.694 16.2729C128.979 15.5568 129.219 14.8447 129.414 14.1367C129.618 13.4287 129.776 12.7126 129.89 11.9883C130.004 11.2559 130.061 10.495 130.061 9.70557C130.061 9.57536 130.053 9.36784 130.037 9.08301C130.028 8.79818 129.992 8.50928 129.927 8.21631C129.87 7.92334 129.776 7.66699 129.646 7.44727C129.524 7.22754 129.349 7.11768 129.121 7.11768C128.942 7.11768 128.787 7.23975 128.657 7.48389C128.527 7.71989 128.413 8.04541 128.315 8.46045C128.218 8.86735 128.136 9.34342 128.071 9.88867C128.006 10.4339 127.953 11.0117 127.913 11.6221C127.872 12.2324 127.839 12.859 127.815 13.502C127.799 14.1449 127.786 14.7715 127.778 15.3818C127.77 15.984 127.766 16.5496 127.766 17.0786C127.766 17.6076 127.766 18.0674 127.766 18.458ZM141.329 22.6572C141.125 22.6572 140.946 22.641 140.792 22.6084C140.669 22.8525 140.523 23.0804 140.352 23.292C140.181 23.4954 139.982 23.6745 139.754 23.8291C139.534 23.9837 139.286 24.1058 139.009 24.1953C138.733 24.2848 138.431 24.3296 138.106 24.3296C137.723 24.3296 137.374 24.2604 137.056 24.1221C136.739 23.9919 136.462 23.8088 136.226 23.5728C135.99 23.3286 135.807 23.0397 135.677 22.7061C135.547 22.3643 135.481 21.9899 135.481 21.583C135.481 21.0622 135.575 20.6105 135.762 20.228C135.949 19.8374 136.165 19.516 136.409 19.2637C136.653 19.0033 136.897 18.812 137.142 18.6899C137.386 18.5597 137.569 18.4946 137.691 18.4946C137.829 18.4946 137.931 18.5312 137.996 18.6045C138.069 18.6777 138.106 18.7754 138.106 18.8975C138.106 19.0358 138.061 19.1416 137.972 19.2148C137.89 19.2799 137.785 19.3451 137.654 19.4102C137.524 19.4753 137.386 19.5688 137.239 19.6909C137.093 19.8049 136.954 19.9513 136.824 20.1304C136.702 20.3094 136.6 20.521 136.519 20.7651C136.438 21.0093 136.397 21.2819 136.397 21.583C136.397 21.8516 136.438 22.1038 136.519 22.3398C136.6 22.5677 136.718 22.7671 136.873 22.938C137.028 23.1007 137.211 23.231 137.422 23.3286C137.634 23.4181 137.87 23.4629 138.13 23.4629C138.594 23.4629 138.977 23.3571 139.278 23.1455C139.587 22.9258 139.823 22.6491 139.986 22.3154C139.506 22.0632 139.111 21.7051 138.802 21.2412C138.493 20.7773 138.338 20.2565 138.338 19.6787C138.338 19.2148 138.448 18.8364 138.667 18.5435C138.895 18.2505 139.192 18.104 139.559 18.104C139.778 18.104 139.986 18.1569 140.181 18.2627C140.376 18.3685 140.547 18.5353 140.694 18.7632C140.848 18.991 140.971 19.284 141.06 19.6421C141.15 20.0002 141.194 20.4274 141.194 20.9238C141.194 21.1842 141.162 21.4569 141.097 21.7417C141.146 21.7498 141.194 21.7539 141.243 21.7539C141.292 21.7539 141.345 21.7539 141.402 21.7539C141.679 21.7539 141.927 21.7214 142.146 21.6562C142.366 21.5911 142.566 21.4935 142.745 21.3633C142.924 21.2331 143.082 21.0662 143.221 20.8628C143.367 20.6593 143.506 20.4233 143.636 20.1548C143.66 20.106 143.713 20.0612 143.794 20.0205C143.876 19.9717 143.957 19.9473 144.039 19.9473C144.144 19.9473 144.242 19.992 144.332 20.0815C144.429 20.1629 144.478 20.2728 144.478 20.4111C144.478 20.4762 144.462 20.5495 144.429 20.6309C144.397 20.7041 144.364 20.7733 144.332 20.8384C144.193 21.0825 144.03 21.3185 143.843 21.5464C143.664 21.7661 143.449 21.9614 143.196 22.1323C142.952 22.2951 142.675 22.4253 142.366 22.5229C142.057 22.6206 141.711 22.6654 141.329 22.6572ZM139.241 19.5811C139.241 19.7357 139.262 19.8984 139.302 20.0693C139.343 20.2402 139.404 20.4111 139.485 20.582C139.575 20.7448 139.681 20.9035 139.803 21.0581C139.933 21.2046 140.083 21.3307 140.254 21.4365C140.279 21.2656 140.291 21.0988 140.291 20.936C140.291 20.7163 140.275 20.4925 140.242 20.2646C140.21 20.0368 140.161 19.8293 140.096 19.6421C140.039 19.4468 139.965 19.2922 139.876 19.1782C139.786 19.0562 139.681 18.9951 139.559 18.9951C139.51 18.9951 139.445 19.0317 139.363 19.105C139.282 19.1782 139.241 19.3369 139.241 19.5811ZM152.999 11.7808C152.999 11.911 152.954 12.0168 152.865 12.0981C152.775 12.1714 152.665 12.208 152.535 12.208H146.346V12.3423C146.346 12.8387 146.31 13.3677 146.236 13.9292C146.163 14.4907 146.061 15.0522 145.931 15.6138C145.809 16.1672 145.667 16.7083 145.504 17.2373C145.349 17.7663 145.187 18.2546 145.016 18.7021C144.853 19.1497 144.69 19.5404 144.527 19.874C144.365 20.1995 144.218 20.4437 144.088 20.6064C144.194 20.9808 144.32 21.3307 144.466 21.6562C144.613 21.9736 144.776 22.2544 144.955 22.4985C145.142 22.7345 145.341 22.9217 145.553 23.0601C145.764 23.1984 145.992 23.2676 146.236 23.2676C146.521 23.2676 146.802 23.1496 147.079 22.9136C147.363 22.6694 147.624 22.3846 147.86 22.0591C148.104 21.7254 148.316 21.3918 148.495 21.0581C148.682 20.7163 148.816 20.4437 148.897 20.2402C148.979 20.0449 149.121 19.9473 149.325 19.9473C149.463 19.9473 149.573 19.9961 149.654 20.0938C149.744 20.1914 149.789 20.2972 149.789 20.4111C149.789 20.4681 149.776 20.5251 149.752 20.582C149.728 20.639 149.667 20.7692 149.569 20.9727C149.479 21.1761 149.357 21.4121 149.203 21.6807C149.056 21.9492 148.881 22.234 148.678 22.5352C148.482 22.8281 148.259 23.0967 148.006 23.3408C147.762 23.585 147.498 23.7884 147.213 23.9512C146.928 24.1139 146.627 24.1953 146.31 24.1953C145.748 24.1953 145.243 24.0122 144.796 23.646C144.348 23.2798 143.966 22.7671 143.648 22.1079C143.339 21.4487 143.103 20.6675 142.94 19.7642C142.778 18.8608 142.696 17.8721 142.696 16.7979C142.696 16.5293 142.7 16.216 142.708 15.8579C142.717 15.4917 142.733 15.1092 142.757 14.7104C142.782 14.3035 142.818 13.8885 142.867 13.4653C142.916 13.034 142.981 12.6149 143.062 12.208H138.68C138.55 12.208 138.44 12.1714 138.351 12.0981C138.261 12.0168 138.216 11.911 138.216 11.7808C138.216 11.6506 138.261 11.5488 138.351 11.4756C138.44 11.3942 138.55 11.3535 138.68 11.3535H143.27C143.351 11.0605 143.445 10.792 143.551 10.5479C143.665 10.3037 143.791 10.0921 143.929 9.91309C144.076 9.73405 144.234 9.5957 144.405 9.49805C144.584 9.39225 144.78 9.33936 144.991 9.33936C145.195 9.33936 145.37 9.39225 145.516 9.49805C145.671 9.5957 145.801 9.73405 145.907 9.91309C146.013 10.0921 146.094 10.3037 146.151 10.5479C146.216 10.792 146.265 11.0605 146.297 11.3535H152.535C152.665 11.3535 152.775 11.3942 152.865 11.4756C152.954 11.5488 152.999 11.6506 152.999 11.7808ZM143.807 19.3857C144.051 18.8486 144.271 18.2708 144.466 17.6523C144.67 17.0257 144.841 16.395 144.979 15.7603C145.125 15.1255 145.235 14.5029 145.309 13.8926C145.39 13.2822 145.431 12.7207 145.431 12.208H143.99C143.876 12.7126 143.783 13.3392 143.709 14.0879C143.644 14.8285 143.612 15.7318 143.612 16.7979C143.612 17.3919 143.628 17.8924 143.661 18.2993C143.693 18.6981 143.742 19.0602 143.807 19.3857ZM144.942 10.2549C144.869 10.2549 144.763 10.3363 144.625 10.499C144.487 10.6536 144.348 10.9385 144.21 11.3535H145.382C145.341 11.0117 145.28 10.7432 145.199 10.5479C145.125 10.3525 145.04 10.2549 144.942 10.2549ZM144.002 20.2646V20.2769V20.2646ZM154.074 22.6572C153.87 22.6572 153.691 22.641 153.537 22.6084C153.415 22.8525 153.268 23.0804 153.097 23.292C152.926 23.4954 152.727 23.6745 152.499 23.8291C152.279 23.9837 152.031 24.1058 151.754 24.1953C151.478 24.2848 151.177 24.3296 150.851 24.3296C150.469 24.3296 150.119 24.2604 149.801 24.1221C149.484 23.9919 149.207 23.8088 148.971 23.5728C148.735 23.3286 148.552 23.0397 148.422 22.7061C148.292 22.3643 148.227 21.9899 148.227 21.583C148.227 21.0622 148.32 20.6105 148.507 20.228C148.694 19.8374 148.91 19.516 149.154 19.2637C149.398 19.0033 149.643 18.812 149.887 18.6899C150.131 18.5597 150.314 18.4946 150.436 18.4946C150.574 18.4946 150.676 18.5312 150.741 18.6045C150.814 18.6777 150.851 18.7754 150.851 18.8975C150.851 19.0358 150.806 19.1416 150.717 19.2148C150.635 19.2799 150.53 19.3451 150.399 19.4102C150.269 19.4753 150.131 19.5688 149.984 19.6909C149.838 19.8049 149.7 19.9513 149.569 20.1304C149.447 20.3094 149.346 20.521 149.264 20.7651C149.183 21.0093 149.142 21.2819 149.142 21.583C149.142 21.8516 149.183 22.1038 149.264 22.3398C149.346 22.5677 149.464 22.7671 149.618 22.938C149.773 23.1007 149.956 23.231 150.167 23.3286C150.379 23.4181 150.615 23.4629 150.875 23.4629C151.339 23.4629 151.722 23.3571 152.023 23.1455C152.332 22.9258 152.568 22.6491 152.731 22.3154C152.251 22.0632 151.856 21.7051 151.547 21.2412C151.238 20.7773 151.083 20.2565 151.083 19.6787C151.083 19.2148 151.193 18.8364 151.413 18.5435C151.64 18.2505 151.938 18.104 152.304 18.104C152.523 18.104 152.731 18.1569 152.926 18.2627C153.122 18.3685 153.292 18.5353 153.439 18.7632C153.594 18.991 153.716 19.284 153.805 19.6421C153.895 20.0002 153.939 20.4274 153.939 20.9238C153.939 21.1842 153.907 21.4569 153.842 21.7417C153.891 21.7498 153.939 21.7539 153.988 21.7539C154.037 21.7539 154.09 21.7539 154.147 21.7539C154.424 21.7539 154.672 21.7214 154.892 21.6562C155.111 21.5911 155.311 21.4935 155.49 21.3633C155.669 21.2331 155.827 21.0662 155.966 20.8628C156.112 20.6593 156.251 20.4233 156.381 20.1548C156.405 20.106 156.458 20.0612 156.54 20.0205C156.621 19.9717 156.702 19.9473 156.784 19.9473C156.889 19.9473 156.987 19.992 157.077 20.0815C157.174 20.1629 157.223 20.2728 157.223 20.4111C157.223 20.4762 157.207 20.5495 157.174 20.6309C157.142 20.7041 157.109 20.7733 157.077 20.8384C156.938 21.0825 156.776 21.3185 156.588 21.5464C156.409 21.7661 156.194 21.9614 155.941 22.1323C155.697 22.2951 155.421 22.4253 155.111 22.5229C154.802 22.6206 154.456 22.6654 154.074 22.6572ZM151.986 19.5811C151.986 19.7357 152.007 19.8984 152.047 20.0693C152.088 20.2402 152.149 20.4111 152.23 20.582C152.32 20.7448 152.426 20.9035 152.548 21.0581C152.678 21.2046 152.829 21.3307 153 21.4365C153.024 21.2656 153.036 21.0988 153.036 20.936C153.036 20.7163 153.02 20.4925 152.987 20.2646C152.955 20.0368 152.906 19.8293 152.841 19.6421C152.784 19.4468 152.711 19.2922 152.621 19.1782C152.532 19.0562 152.426 18.9951 152.304 18.9951C152.255 18.9951 152.19 19.0317 152.108 19.105C152.027 19.1782 151.986 19.3369 151.986 19.5811Z" fill="black"/>
</svg>
