<svg width="210" height="109" viewBox="0 0 210 109" fill="none" xmlns="http://www.w3.org/2000/svg">
<path d="M12.36 17.16C13.7467 17.16 14.8533 17.2933 15.68 17.56C16.5067 17.8267 17.3467 18.2133 18.2 18.72C18.4933 18.88 18.7467 19.0133 18.96 19.12C19.2 19.2267 19.4 19.28 19.56 19.28C19.8 19.28 19.9867 19.1467 20.12 18.88C20.2533 18.5867 20.36 18.1333 20.44 17.52H21.36C21.2267 19.3067 21.16 22.3467 21.16 26.64H20.24C20.1333 25.2 19.8 23.8267 19.24 22.52C18.7067 21.2133 17.9333 20.16 16.92 19.36C15.9333 18.5333 14.7733 18.12 13.44 18.12C12.1333 18.12 11.0667 18.4933 10.24 19.24C9.44002 19.96 9.04002 20.9467 9.04002 22.2C9.04002 23.1333 9.24002 23.9467 9.64002 24.64C10.04 25.3333 10.6 25.9733 11.32 26.56C12.04 27.12 13.1467 27.8933 14.64 28.88L15.92 29.76C17.4933 30.8 18.7333 31.7067 19.64 32.48C20.5467 33.2533 21.28 34.16 21.84 35.2C22.4267 36.2133 22.72 37.4 22.72 38.76C22.72 40.4667 22.28 41.9067 21.4 43.08C20.52 44.2267 19.32 45.0933 17.8 45.68C16.3067 46.2667 14.64 46.56 12.8 46.56C11.3067 46.56 10.0667 46.4267 9.08002 46.16C8.09335 45.8933 7.18668 45.5333 6.36002 45.08C5.77335 44.7067 5.32002 44.52 5.00002 44.52C4.76002 44.52 4.57335 44.6667 4.44002 44.96C4.30668 45.2267 4.20002 45.6667 4.12002 46.28H3.20002C3.30668 44.6 3.36002 41 3.36002 35.48H4.28002C4.46668 38.4667 5.13335 40.8933 6.28002 42.76C7.42668 44.6 9.18668 45.52 11.56 45.52C13 45.52 14.1867 45.1333 15.12 44.36C16.0533 43.5867 16.52 42.48 16.52 41.04C16.52 39.5467 16.04 38.2667 15.08 37.2C14.12 36.1333 12.6 34.9333 10.52 33.6C8.92002 32.56 7.64002 31.6533 6.68002 30.88C5.72002 30.1067 4.93335 29.2 4.32002 28.16C3.70668 27.0933 3.40002 25.8667 3.40002 24.48C3.40002 22.88 3.80002 21.5333 4.60002 20.44C5.42668 19.32 6.52002 18.4933 7.88002 17.96C9.24002 17.4267 10.7333 17.16 12.36 17.16ZM44.6441 43.08C45.0707 43.72 45.4174 44.2 45.6841 44.52C45.9507 44.8133 46.2974 45.0267 46.7241 45.16V46C44.5907 45.8933 43.1907 45.84 42.5241 45.84C41.6441 45.84 39.9241 45.8933 37.3641 46V45.16C37.7374 45.16 38.0307 45.0933 38.2441 44.96C38.4574 44.8267 38.5641 44.64 38.5641 44.4C38.5641 44.2667 38.4974 44.0667 38.3641 43.8L34.4041 36.64C34.1374 36.1867 33.8574 35.88 33.5641 35.72C33.2707 35.56 32.8974 35.4533 32.4441 35.4V42.28C32.4441 43.3733 32.6174 44.1333 32.9641 44.56C33.3107 44.96 33.9374 45.16 34.8441 45.16V46C32.1774 45.8933 30.4441 45.84 29.6441 45.84C28.7374 45.84 26.8974 45.8933 24.1241 46V45.16C25.0574 45.16 25.7107 44.96 26.0841 44.56C26.4841 44.1333 26.6841 43.3733 26.6841 42.28V19.48C26.6841 18.2533 26.4841 17.36 26.0841 16.8C25.7107 16.24 25.0574 15.96 24.1241 15.96V15.12C24.9774 15.2 25.8041 15.24 26.6041 15.24C28.9241 15.24 30.8707 15.0533 32.4441 14.68V34.64C32.9774 34.5867 33.4307 34.48 33.8041 34.32C34.2041 34.16 34.5507 33.92 34.8441 33.6L37.8841 30.64C38.7641 29.76 39.2041 28.9467 39.2041 28.2C39.2041 27.5867 38.9241 27.1067 38.3641 26.76C37.8041 26.3867 37.0574 26.1733 36.1241 26.12V25.32C37.5907 25.4 39.1507 25.44 40.8041 25.44C43.0174 25.44 44.5774 25.4 45.4841 25.32V26.12C43.9107 26.4667 42.2441 27.4933 40.4841 29.2L37.9241 31.84L44.6441 43.08ZM54.106 42.28C54.106 43.3733 54.2926 44.1333 54.666 44.56C55.0393 44.96 55.706 45.16 56.666 45.16V46C53.8926 45.8933 52.106 45.84 51.306 45.84C50.3993 45.84 48.5593 45.8933 45.786 46V45.16C46.7193 45.16 47.3726 44.96 47.746 44.56C48.146 44.1333 48.346 43.3733 48.346 42.28V19.48C48.346 18.2533 48.146 17.36 47.746 16.8C47.3726 16.24 46.7193 15.96 45.786 15.96V15.12C46.6393 15.2 47.466 15.24 48.266 15.24C50.586 15.24 52.5326 15.0533 54.106 14.68V42.28ZM68.9372 43.28C71.1239 43.28 72.8839 42.2133 74.2172 40.08L74.9372 40.32C74.4039 42.0533 73.4439 43.5333 72.0572 44.76C70.6972 45.96 68.9905 46.56 66.9372 46.56C64.1105 46.56 61.8572 45.6667 60.1772 43.88C58.5239 42.0667 57.6972 39.4 57.6972 35.88C57.6972 32.28 58.5905 29.5333 60.3772 27.64C62.1639 25.72 64.5372 24.76 67.4972 24.76C72.5105 24.76 75.0172 27.72 75.0172 33.64H63.7772C63.7505 34.04 63.7372 34.6667 63.7372 35.52C63.7372 37.28 63.9772 38.7467 64.4572 39.92C64.9639 41.0933 65.6039 41.9467 66.3772 42.48C67.1772 43.0133 68.0305 43.28 68.9372 43.28ZM67.2572 25.6C66.2972 25.6 65.4972 26.2 64.8572 27.4C64.2439 28.5733 63.8572 30.4 63.6972 32.88H69.9772C70.0305 30.7733 69.8172 29.04 69.3372 27.68C68.8839 26.2933 68.1905 25.6 67.2572 25.6ZM90.0591 24.76C91.2591 24.76 92.1657 25.12 92.7791 25.84C93.3924 26.56 93.6991 27.4267 93.6991 28.44C93.6991 29.4267 93.4057 30.24 92.8191 30.88C92.2591 31.4933 91.5124 31.8 90.5791 31.8C89.6724 31.8 88.9524 31.5733 88.4191 31.12C87.8857 30.64 87.6191 30.0133 87.6191 29.24C87.6191 27.96 88.2057 26.92 89.3791 26.12C89.2724 26.0933 89.1124 26.08 88.8991 26.08C88.6324 26.08 88.4191 26.1067 88.2591 26.16C87.2457 26.32 86.3791 26.9333 85.6591 28C84.9657 29.0667 84.6191 30.16 84.6191 31.28V41.88C84.6191 43.1067 84.9124 43.96 85.4991 44.44C86.1124 44.92 87.0724 45.16 88.3791 45.16V46C88.0057 46 87.6991 45.9867 87.4591 45.96C84.7391 45.88 82.9257 45.84 82.0191 45.84C81.2991 45.84 79.6591 45.88 77.0991 45.96C76.8857 45.9867 76.6191 46 76.2991 46V45.16C77.2591 45.16 77.9257 44.96 78.2991 44.56C78.6724 44.1333 78.8591 43.3733 78.8591 42.28V29.68C78.8591 28.4533 78.6724 27.56 78.2991 27C77.9257 26.44 77.2591 26.16 76.2991 26.16V25.32C77.1524 25.4 77.9791 25.44 78.7791 25.44C81.1524 25.44 83.0991 25.2533 84.6191 24.88V28.6C85.1257 27.4533 85.8591 26.5333 86.8191 25.84C87.7791 25.12 88.8591 24.76 90.0591 24.76ZM99.451 46.28C97.7443 46.28 96.4643 45.84 95.611 44.96C94.7843 44.08 94.371 42.92 94.371 41.48C94.371 40.28 94.6776 39.2933 95.291 38.52C95.931 37.72 96.691 37.1067 97.571 36.68C98.4776 36.2533 99.6243 35.8 101.011 35.32C102.478 34.8133 103.544 34.36 104.211 33.96C104.904 33.5333 105.251 32.96 105.251 32.24V29.12C105.251 28 104.984 27.1333 104.451 26.52C103.944 25.88 103.144 25.56 102.051 25.56C100.771 25.56 99.7976 25.88 99.131 26.52C99.8776 26.7867 100.451 27.1867 100.851 27.72C101.278 28.2533 101.491 28.88 101.491 29.6C101.491 30.5067 101.184 31.2267 100.571 31.76C99.9576 32.2933 99.211 32.56 98.331 32.56C97.3976 32.56 96.6776 32.2667 96.171 31.68C95.6643 31.0933 95.411 30.36 95.411 29.48C95.411 28.7333 95.5843 28.1067 95.931 27.6C96.3043 27.0667 96.8643 26.5733 97.611 26.12C98.331 25.6933 99.211 25.36 100.251 25.12C101.318 24.88 102.478 24.76 103.731 24.76C105.038 24.76 106.171 24.8933 107.131 25.16C108.091 25.4267 108.891 25.88 109.531 26.52C110.118 27.1067 110.504 27.8267 110.691 28.68C110.904 29.5333 111.011 30.6933 111.011 32.16V43.04C111.011 43.68 111.064 44.1333 111.171 44.4C111.304 44.6667 111.544 44.8 111.891 44.8C112.291 44.8 112.771 44.5733 113.331 44.12L113.731 44.8C112.531 45.7867 111.064 46.28 109.331 46.28C107.864 46.28 106.838 45.9867 106.251 45.4C105.664 44.8133 105.358 44.0267 105.331 43.04C103.998 45.2 102.038 46.28 99.451 46.28ZM102.531 43.72C103.571 43.72 104.478 43.1733 105.251 42.08V33.88C104.931 34.4133 104.251 35 103.211 35.64C102.171 36.3067 101.384 36.9733 100.851 37.64C100.318 38.3067 100.051 39.2667 100.051 40.52C100.051 41.6133 100.278 42.4267 100.731 42.96C101.184 43.4667 101.784 43.72 102.531 43.72Z" fill="black"/>
<path d="M134.114 30.24C135.367 27.44 137.567 26.04 140.714 26.04C143.034 26.04 144.834 26.8267 146.114 28.4C147.341 29.8933 147.954 31.9733 147.954 34.64V46H143.194V34.64C143.194 33.2 142.847 32.12 142.154 31.4C141.461 30.6533 140.487 30.28 139.234 30.28C137.981 30.28 136.954 30.8267 136.154 31.92C135.354 33.0133 134.927 34.6667 134.874 36.88V46H130.154V34.64C130.154 33.2 129.807 32.12 129.114 31.4C128.421 30.6533 127.447 30.28 126.194 30.28C124.941 30.28 123.861 30.84 122.954 31.96C122.074 33.08 121.607 34.76 121.554 37V46H116.834V26.56H120.954L121.474 29.92C122.754 27.3333 124.807 26.04 127.634 26.04C129.261 26.04 130.607 26.4133 131.674 27.16C132.767 27.9067 133.581 28.9333 134.114 30.24ZM161.643 26.04C162.949 26.04 164.176 26.2533 165.323 26.68C166.469 27.08 167.456 27.7067 168.283 28.56C170.123 30.4267 171.043 33.0133 171.043 36.32C171.043 39.5733 170.123 42.1333 168.283 44C166.629 45.7067 164.416 46.56 161.643 46.56C158.869 46.56 156.629 45.7067 154.923 44C153.083 42.16 152.163 39.6 152.163 36.32C152.163 32.9867 153.083 30.4 154.923 28.56C156.603 26.88 158.843 26.04 161.643 26.04ZM166.323 36.28C166.323 34.2267 165.923 32.6933 165.123 31.68C164.323 30.64 163.203 30.12 161.763 30.12C160.349 30.12 159.189 30.64 158.283 31.68C157.376 32.6933 156.923 34.2267 156.923 36.28C156.923 38.3333 157.323 39.88 158.123 40.92C158.949 41.9333 160.069 42.44 161.483 42.44C162.896 42.44 164.056 41.9333 164.963 40.92C165.869 39.88 166.323 38.3333 166.323 36.28ZM186.819 45.52C185.059 46.2133 183.672 46.56 182.659 46.56C181.646 46.56 180.752 46.44 179.979 46.2C179.232 45.96 178.566 45.6 177.979 45.12C176.752 44.0267 176.139 42.52 176.139 40.6V29.72H173.419V26.56H176.139V21.44H180.859V26.56H186.139V29.72H180.859V40.44C180.859 42.04 181.619 42.84 183.139 42.84C183.912 42.84 184.912 42.6267 186.139 42.2L186.819 45.52ZM198.48 26.04C199.787 26.04 201.014 26.2533 202.16 26.68C203.307 27.08 204.294 27.7067 205.12 28.56C206.96 30.4267 207.88 33.0133 207.88 36.32C207.88 39.5733 206.96 42.1333 205.12 44C203.467 45.7067 201.254 46.56 198.48 46.56C195.707 46.56 193.467 45.7067 191.76 44C189.92 42.16 189 39.6 189 36.32C189 32.9867 189.92 30.4 191.76 28.56C193.44 26.88 195.68 26.04 198.48 26.04ZM203.16 36.28C203.16 34.2267 202.76 32.6933 201.96 31.68C201.16 30.64 200.04 30.12 198.6 30.12C197.187 30.12 196.027 30.64 195.12 31.68C194.214 32.6933 193.76 34.2267 193.76 36.28C193.76 38.3333 194.16 39.88 194.96 40.92C195.787 41.9333 196.907 42.44 198.32 42.44C199.734 42.44 200.894 41.9333 201.8 40.92C202.707 39.88 203.16 38.3333 203.16 36.28Z" fill="#C4C4C4"/>
<path d="M197.764 91.3325C196.377 91.322 195.272 91.1803 194.447 90.9074C193.623 90.6345 192.785 90.2415 191.936 89.7284C191.644 89.5662 191.392 89.431 191.179 89.3227C190.94 89.2142 190.74 89.1594 190.58 89.1582C190.34 89.1564 190.153 89.2883 190.017 89.5539C189.882 89.8462 189.772 90.2988 189.687 90.9115L188.767 90.9045C188.914 89.1189 189.003 86.0795 189.036 81.7863L189.956 81.7932C190.052 83.234 190.375 84.6098 190.925 85.9207C191.448 87.2313 192.214 88.2905 193.221 89.0981C194.201 89.9322 195.358 90.3543 196.691 90.3644C197.998 90.3743 199.067 90.009 199.9 89.2686C200.705 88.5547 201.113 87.5711 201.122 86.3178C201.129 85.3844 200.935 84.5696 200.54 83.8733C200.146 83.177 199.591 82.5327 198.875 81.9406C198.159 81.3752 197.059 80.5935 195.573 79.5956L194.299 78.706C192.734 77.6541 191.501 76.7381 190.6 75.9579C189.699 75.1778 188.973 74.2656 188.421 73.2214C187.842 72.2037 187.557 71.0148 187.568 69.6548C187.58 67.9482 188.031 66.5116 188.92 65.3449C189.809 64.205 191.015 63.3474 192.54 62.7722C194.037 62.1969 195.706 61.9161 197.546 61.93C199.04 61.9413 200.278 62.084 201.263 62.3581C202.248 62.6323 203.152 62.9991 203.975 63.4587C204.559 63.8364 205.011 64.0265 205.331 64.0289C205.571 64.0307 205.758 63.8855 205.894 63.5932C206.029 63.3275 206.139 62.8883 206.224 62.2756L207.144 62.2826C207.024 63.9617 206.944 67.5612 206.902 73.0811L205.982 73.0741C205.818 70.0861 205.17 67.6545 204.037 65.7792C202.905 63.9306 201.152 62.9973 198.778 62.9794C197.338 62.9685 196.149 63.3462 195.21 64.1124C194.271 64.8787 193.796 65.9818 193.785 67.4218C193.773 68.9151 194.244 70.1986 195.196 71.2725C196.147 72.3464 197.658 73.5579 199.728 74.9069C201.32 75.959 202.593 76.8753 203.548 77.6558C204.502 78.4364 205.281 79.349 205.887 80.3936C206.492 81.4649 206.79 82.6938 206.779 84.0804C206.767 85.6804 206.357 87.024 205.549 88.1113C204.714 89.225 203.614 90.0434 202.25 90.5664C200.886 91.0894 199.391 91.3448 197.764 91.3325ZM165.677 65.1693C165.255 64.5261 164.912 64.0435 164.648 63.7215C164.383 63.4261 164.038 63.2102 163.613 63.0736L163.619 62.2336C165.751 62.3564 167.151 62.4203 167.818 62.4254C168.698 62.432 170.418 62.3917 172.979 62.3044L172.972 63.1444C172.599 63.1415 172.305 63.206 172.091 63.3377C171.876 63.4694 171.768 63.6553 171.767 63.8953C171.766 64.0286 171.831 64.2291 171.962 64.4968L175.868 71.6865C176.131 72.1418 176.409 72.4506 176.701 72.6128C176.993 72.775 177.365 72.8845 177.818 72.9413L177.87 66.0615C177.879 64.9682 177.711 64.2069 177.368 63.7776C177.024 63.375 176.399 63.1703 175.492 63.1634L175.499 62.3234C178.164 62.4502 179.897 62.5167 180.697 62.5227C181.604 62.5296 183.444 62.4901 186.218 62.4044L186.212 63.2444C185.279 63.2374 184.624 63.4324 184.247 63.8296C183.844 64.2532 183.638 65.0117 183.63 66.105L183.458 88.9043C183.449 90.131 183.642 91.0258 184.038 91.5888C184.407 92.1516 185.058 92.4365 185.991 92.4436L185.985 93.2836C185.132 93.1971 184.306 93.1509 183.506 93.1448C181.186 93.1273 179.238 93.2992 177.662 93.6607L177.813 73.7012C177.279 73.7505 176.825 73.8538 176.45 74.011C176.049 74.1679 175.701 74.4053 175.405 74.7231L172.343 77.66C171.456 78.5333 171.01 79.3433 171.004 80.09C171 80.7033 171.276 81.1854 171.833 81.5363C172.39 81.9138 173.135 82.1328 174.068 82.1932L174.062 82.9932C172.596 82.9021 171.037 82.8503 169.383 82.8378C167.17 82.8211 165.61 82.8493 164.703 82.9224L164.709 82.1224C166.285 81.7877 167.959 80.7736 169.732 79.0803L172.312 76.4597L165.677 65.1693ZM156.209 65.8977C156.217 64.8044 156.036 64.0431 155.666 63.6136C155.296 63.2108 154.631 63.0057 153.671 62.9985L153.677 62.1585C156.45 62.2861 158.236 62.353 159.036 62.359C159.943 62.3659 161.783 62.3264 164.557 62.2407L164.551 63.0807C163.617 63.0737 162.963 63.2687 162.586 63.6659C162.183 64.0895 161.977 64.848 161.969 65.9413L161.797 88.7406C161.787 89.9673 161.981 90.8621 162.376 91.4251C162.745 91.9879 163.397 92.2728 164.33 92.2799L164.324 93.1199C163.471 93.0334 162.645 92.9872 161.845 92.9811C159.525 92.9636 157.577 93.1355 156.001 93.497L156.209 65.8977ZM141.386 64.7857C139.199 64.7692 137.431 65.8225 136.082 67.9457L135.364 67.7003C135.91 65.971 136.881 64.4983 138.277 63.2822C139.646 62.0925 141.357 61.5054 143.411 61.5209C146.237 61.5423 148.484 62.4526 150.15 64.2519C151.79 66.0777 152.596 68.7505 152.57 72.2704C152.542 75.8703 151.628 78.6102 149.827 80.4899C148.026 82.3964 145.646 83.3384 142.686 83.316C137.673 83.2782 135.188 80.2993 135.233 74.3795L146.473 74.4644C146.503 74.0646 146.521 73.4381 146.527 72.5848C146.54 70.8248 146.311 69.3564 145.84 68.1795C145.343 67.0023 144.709 66.1442 143.94 65.605C143.144 65.0657 142.293 64.7925 141.386 64.7857ZM142.932 82.4779C143.892 82.4851 144.697 81.8912 145.346 80.6961C145.968 79.5274 146.368 77.7037 146.547 75.225L140.267 75.1775C140.198 77.2837 140.398 79.0186 140.868 80.3822C141.311 81.7723 141.999 82.4708 142.932 82.4779ZM120.125 83.1455C118.925 83.1365 118.021 82.7696 117.413 82.045C116.805 81.3204 116.505 80.4514 116.513 79.4381C116.52 78.4515 116.819 77.6404 117.411 77.0049C117.976 76.3958 118.725 76.0948 119.658 76.1018C120.564 76.1087 121.283 76.3408 121.813 76.7981C122.342 77.2821 122.604 77.9108 122.598 78.6841C122.589 79.9641 121.994 80.9996 120.815 81.7907C120.921 81.8182 121.081 81.8327 121.295 81.8343C121.561 81.8364 121.775 81.8113 121.935 81.7592C122.95 81.6068 123.821 81.0001 124.549 79.9389C125.25 78.8775 125.605 77.7868 125.614 76.6668L125.694 66.0671C125.703 64.8405 125.416 63.985 124.833 63.5006C124.224 63.0159 123.265 62.7687 121.959 62.7588L121.965 61.9188C122.338 61.9217 122.645 61.9373 122.885 61.9658C125.604 62.0663 127.417 62.1201 128.324 62.1269C129.044 62.1323 130.684 62.1047 133.244 62.0441C133.458 62.019 133.725 62.0077 134.045 62.0101L134.038 62.8501C133.078 62.8429 132.41 63.0378 132.034 63.435C131.657 63.8588 131.465 64.6174 131.457 65.7107L131.361 78.3103C131.352 79.537 131.532 80.4317 131.901 80.9945C132.27 81.5573 132.935 81.8423 133.895 81.8496L133.888 82.6895C133.036 82.6031 132.209 82.5569 131.409 82.5508C129.036 82.5329 127.088 82.7048 125.565 83.0667L125.593 79.3468C125.078 80.4896 124.338 81.404 123.373 82.0901C122.407 82.8028 121.325 83.1546 120.125 83.1455ZM110.896 61.5552C112.602 61.5681 113.879 62.0177 114.726 62.9042C115.546 63.7904 115.95 64.9535 115.939 66.3934C115.93 67.5934 115.616 68.5777 114.997 69.3464C114.351 70.1415 113.586 70.7491 112.703 71.1691C111.793 71.5889 110.643 72.0336 109.253 72.5031C107.782 72.9986 106.712 73.4439 106.043 73.8389C105.346 74.2603 104.995 74.831 104.99 75.5509L104.966 78.6709C104.958 79.7908 105.218 80.6595 105.746 81.2768C106.248 81.9206 107.046 82.2467 108.139 82.2549C109.419 82.2646 110.395 81.952 111.066 81.317C110.322 81.0447 109.751 80.6404 109.355 80.1041C108.933 79.5675 108.724 78.9393 108.73 78.2193C108.737 77.3126 109.049 76.595 109.666 76.0663C110.283 75.5376 111.032 75.2766 111.912 75.2833C112.845 75.2903 113.563 75.5891 114.065 76.1795C114.567 76.77 114.815 77.5053 114.809 78.3852C114.803 79.1319 114.625 79.7572 114.274 80.2612C113.897 80.7917 113.333 81.2808 112.583 81.7285C111.86 82.1497 110.978 82.4764 109.936 82.7085C108.867 82.9405 107.706 83.0517 106.453 83.0422C105.147 83.0323 104.014 82.8904 103.056 82.6165C102.098 82.3426 101.302 81.8833 100.667 81.2384C100.084 80.6474 99.7032 79.9245 99.523 79.0697C99.3161 78.2148 99.2182 77.054 99.2293 75.5874L99.3115 64.7077C99.3163 64.0677 99.2664 63.614 99.1618 63.3466C99.0305 63.0789 98.7915 62.9437 98.4448 62.9411C98.0448 62.9381 97.5631 63.1611 96.9997 63.6102L96.6049 62.9272C97.8123 61.9496 99.2827 61.4674 101.016 61.4805C102.483 61.4916 103.507 61.7927 104.089 62.3838C104.671 62.9748 104.972 63.7638 104.991 64.7506C106.341 62.6008 108.309 61.5356 110.896 61.5552ZM107.796 64.0918C106.756 64.084 105.846 64.6238 105.064 65.7112L105.002 73.911C105.326 73.3801 106.011 72.7986 107.055 72.1665C108.1 71.5077 108.892 70.847 109.43 70.1844C109.969 69.5217 110.243 68.5638 110.252 67.3105C110.26 66.2172 110.04 65.4022 109.591 64.8654C109.141 64.3553 108.543 64.0975 107.796 64.0918Z" fill="black"/>
<path d="M76.1123 77.3328C74.8378 80.1232 72.6273 81.5065 69.4808 81.4828C67.1608 81.4652 65.3668 80.665 64.0987 79.082C62.8834 77.5795 62.2858 75.4949 62.306 72.8283L62.3918 61.4686L67.1517 61.5046L67.0658 72.8643C67.0549 74.3042 67.3934 75.3868 68.0813 76.112C68.769 76.8639 69.7395 77.2446 70.9928 77.2541C72.2461 77.2635 73.2768 76.7246 74.0851 75.6374C74.8933 74.5501 75.3325 72.9001 75.4025 70.6872L75.4714 61.5675L80.1913 61.6031L80.1054 72.9628C80.0946 74.4028 80.4331 75.4854 81.1209 76.2106C81.8086 76.9625 82.7791 77.3431 84.0324 77.3526C85.2857 77.3621 86.3699 76.8103 87.285 75.6971C88.1734 74.5838 88.6528 72.9074 88.723 70.6679L88.7911 61.6681L93.5109 61.7038L93.364 81.1432L89.2441 81.1121L88.7495 77.7483C87.45 80.3252 85.387 81.603 82.5604 81.5816C80.9338 81.5693 79.59 81.1858 78.529 80.4311C77.4413 79.6762 76.6358 78.6434 76.1123 77.3328ZM48.5526 81.3246C47.246 81.3147 46.021 81.0921 44.8775 80.6568C43.7339 80.2481 42.752 79.614 41.9318 78.7545C40.106 76.874 39.2056 74.2804 39.2306 70.9739C39.2551 67.7206 40.1945 65.1676 42.0485 63.3149C43.7147 61.6208 45.9344 60.7842 48.7077 60.8052C51.4809 60.8261 53.7144 61.6964 55.4081 63.4159C57.2342 65.2697 58.1348 67.8366 58.11 71.1165C58.0848 74.4498 57.1453 77.0294 55.2915 78.8555C53.5988 80.5227 51.3525 81.3458 48.5526 81.3246ZM43.9501 71.0495C43.9346 73.1028 44.323 74.6391 45.1153 75.6585C45.9074 76.7045 47.0235 77.2329 48.4634 77.2438C49.8767 77.2545 51.0406 76.7433 51.9551 75.7101C52.8694 74.7037 53.3343 73.1738 53.3499 71.1206C53.3654 69.0673 52.9771 67.5176 52.185 66.4716C51.366 65.4521 50.2498 64.937 48.8365 64.9263C47.4232 64.9156 46.2595 65.4135 45.3452 66.4199C44.4307 67.453 43.9656 68.9962 43.9501 71.0495ZM23.5243 61.6549C25.2895 60.9749 26.6787 60.6387 27.692 60.6464C28.7053 60.654 29.5977 60.7808 30.3692 61.0266C31.1141 61.2722 31.778 61.6373 32.361 62.1217C33.5794 63.2243 34.1813 64.7355 34.1668 66.6555L34.0846 77.5351L36.8045 77.5557L36.7806 80.7156L34.0607 80.6951L34.022 85.8149L29.3021 85.7792L29.3408 80.6594L24.061 80.6195L24.0849 77.4596L29.3647 77.4995L29.4457 66.7798C29.4578 65.1798 28.7039 64.3741 27.1839 64.3626C26.4106 64.3568 25.409 64.5625 24.1792 64.9799L23.5243 61.6549ZM11.7161 81.0462C10.4095 81.0363 9.1845 80.8137 8.04109 80.3784C6.89748 79.9698 5.91558 79.3357 5.09538 78.4761C3.26954 76.5956 2.36912 74.002 2.3941 70.6955C2.41869 67.4422 3.35801 64.8892 5.21207 63.0365C6.87825 61.3424 9.09797 60.5058 11.8712 60.5268C14.6445 60.5477 16.878 61.418 18.5717 63.1375C20.3977 64.9914 21.2984 67.5582 21.2736 70.8381C21.2484 74.1714 20.3089 76.751 18.455 78.5771C16.7624 80.2443 14.5161 81.0674 11.7161 81.0462ZM7.11367 70.7711C7.09815 72.8244 7.48655 74.3607 8.27887 75.3801C9.07099 76.4261 10.187 76.9545 11.627 76.9654C13.0403 76.9761 14.2042 76.4649 15.1187 75.4318C16.033 74.4253 16.4979 72.8954 16.5134 70.8422C16.5289 68.7889 16.1406 67.2392 15.3485 66.1932C14.5295 65.1737 13.4134 64.6586 12.0001 64.6479C10.5868 64.6372 9.423 65.1351 8.5087 66.1415C7.5942 67.1747 7.12919 68.7179 7.11367 70.7711Z" fill="#C4C4C4"/>
</svg>
